<svg width="149" height="40" viewBox="0 0 149 40" fill="none" xmlns="http://www.w3.org/2000/svg">
<g clip-path="url(#clip0_4_10)">
<path d="M39.0476 20C39.0476 25.0517 37.0408 29.8965 33.4687 33.4687C29.8966 37.0408 25.0518 39.0476 20 39.0476C14.9483 39.0476 10.1034 37.0408 6.53131 33.4687C2.95919 29.8965 0.952393 25.0517 0.952393 20C0.952393 14.9482 2.95919 10.1034 6.53131 6.53125C10.1034 2.95913 14.9483 0.952332 20 0.952332C25.0518 0.952332 29.8966 2.95913 33.4687 6.53125C37.0408 10.1034 39.0476 14.9482 39.0476 20ZM17.1191 13.0785C16.9411 12.9518 16.7316 12.8765 16.5136 12.8609C16.2957 12.8453 16.0776 12.8899 15.8834 12.99C15.6891 13.0901 15.5261 13.2417 15.4123 13.4282C15.2985 13.6148 15.2382 13.8291 15.2381 14.0476V25.9523C15.2382 26.1709 15.2985 26.3851 15.4123 26.5717C15.5261 26.7582 15.6891 26.9098 15.8834 27.0099C16.0776 27.11 16.2957 27.1546 16.5136 27.139C16.7316 27.1234 16.9411 27.0481 17.1191 26.9214L25.4524 20.969C25.6067 20.8589 25.7325 20.7135 25.8193 20.5449C25.9061 20.3764 25.9514 20.1895 25.9514 20C25.9514 19.8104 25.9061 19.6235 25.8193 19.455C25.7325 19.2864 25.6067 19.141 25.4524 19.0309L17.1191 13.0785Z" fill="#0000FF"/>
</g>
<circle cx="20" cy="20" r="19.5" stroke="#4169E1"/>
<path d="M53.4665 15.83V18.386H57.5885V20.762H53.4665V23.534H58.1285V26H50.3885V13.364H58.1285V15.83H53.4665ZM64.6447 23.12L66.8227 15.956H70.0987L66.5347 26H62.7367L59.1727 15.956H62.4667L64.6447 23.12ZM80.8623 20.816C80.8623 21.104 80.8443 21.404 80.8083 21.716H73.8423C73.8903 22.34 74.0883 22.82 74.4363 23.156C74.7963 23.48 75.2343 23.642 75.7503 23.642C76.5183 23.642 77.0523 23.318 77.3523 22.67H80.6283C80.4603 23.33 80.1543 23.924 79.7103 24.452C79.2783 24.98 78.7323 25.394 78.0723 25.694C77.4123 25.994 76.6743 26.144 75.8583 26.144C74.8743 26.144 73.9983 25.934 73.2303 25.514C72.4623 25.094 71.8623 24.494 71.4303 23.714C70.9983 22.934 70.7823 22.022 70.7823 20.978C70.7823 19.934 70.9923 19.022 71.4123 18.242C71.8443 17.462 72.4443 16.862 73.2123 16.442C73.9803 16.022 74.8623 15.812 75.8583 15.812C76.8303 15.812 77.6943 16.016 78.4503 16.424C79.2063 16.832 79.7943 17.414 80.2143 18.17C80.6463 18.926 80.8623 19.808 80.8623 20.816ZM77.7123 20.006C77.7123 19.478 77.5323 19.058 77.1723 18.746C76.8123 18.434 76.3623 18.278 75.8223 18.278C75.3063 18.278 74.8683 18.428 74.5083 18.728C74.1603 19.028 73.9443 19.454 73.8603 20.006H77.7123ZM93.4301 13.364V26H90.3521V20.798H85.5641V26H82.4861V13.364H85.5641V18.314H90.3521V13.364H93.4301ZM97.2001 14.912C96.6601 14.912 96.2161 14.756 95.8681 14.444C95.5321 14.12 95.3641 13.724 95.3641 13.256C95.3641 12.776 95.5321 12.38 95.8681 12.068C96.2161 11.744 96.6601 11.582 97.2001 11.582C97.7281 11.582 98.1601 11.744 98.4961 12.068C98.8441 12.38 99.0181 12.776 99.0181 13.256C99.0181 13.724 98.8441 14.12 98.4961 14.444C98.1601 14.756 97.7281 14.912 97.2001 14.912ZM98.7301 15.956V26H95.6521V15.956H98.7301ZM105.047 26.144C104.171 26.144 103.391 25.994 102.707 25.694C102.023 25.394 101.483 24.986 101.087 24.47C100.691 23.942 100.469 23.354 100.421 22.706H103.463C103.499 23.054 103.661 23.336 103.949 23.552C104.237 23.768 104.591 23.876 105.011 23.876C105.395 23.876 105.689 23.804 105.893 23.66C106.109 23.504 106.217 23.306 106.217 23.066C106.217 22.778 106.067 22.568 105.767 22.436C105.467 22.292 104.981 22.136 104.309 21.968C103.589 21.8 102.989 21.626 102.509 21.446C102.029 21.254 101.615 20.96 101.267 20.564C100.919 20.156 100.745 19.61 100.745 18.926C100.745 18.35 100.901 17.828 101.213 17.36C101.537 16.88 102.005 16.502 102.617 16.226C103.241 15.95 103.979 15.812 104.831 15.812C106.091 15.812 107.081 16.124 107.801 16.748C108.533 17.372 108.953 18.2 109.061 19.232H106.217C106.169 18.884 106.013 18.608 105.749 18.404C105.497 18.2 105.161 18.098 104.741 18.098C104.381 18.098 104.105 18.17 103.913 18.314C103.721 18.446 103.625 18.632 103.625 18.872C103.625 19.16 103.775 19.376 104.075 19.52C104.387 19.664 104.867 19.808 105.515 19.952C106.259 20.144 106.865 20.336 107.333 20.528C107.801 20.708 108.209 21.008 108.557 21.428C108.917 21.836 109.103 22.388 109.115 23.084C109.115 23.672 108.947 24.2 108.611 24.668C108.287 25.124 107.813 25.484 107.189 25.748C106.577 26.012 105.863 26.144 105.047 26.144ZM116.596 23.39V26H115.03C113.914 26 113.044 25.73 112.42 25.19C111.796 24.638 111.484 23.744 111.484 22.508V18.512H110.26V15.956H111.484V13.508H114.562V15.956H116.578V18.512H114.562V22.544C114.562 22.844 114.634 23.06 114.778 23.192C114.922 23.324 115.162 23.39 115.498 23.39H116.596ZM122.882 26.144C121.898 26.144 121.01 25.934 120.218 25.514C119.438 25.094 118.82 24.494 118.364 23.714C117.92 22.934 117.698 22.022 117.698 20.978C117.698 19.946 117.926 19.04 118.382 18.26C118.838 17.468 119.462 16.862 120.254 16.442C121.046 16.022 121.934 15.812 122.918 15.812C123.902 15.812 124.79 16.022 125.582 16.442C126.374 16.862 126.998 17.468 127.454 18.26C127.91 19.04 128.138 19.946 128.138 20.978C128.138 22.01 127.904 22.922 127.436 23.714C126.98 24.494 126.35 25.094 125.546 25.514C124.754 25.934 123.866 26.144 122.882 26.144ZM122.882 23.48C123.47 23.48 123.968 23.264 124.376 22.832C124.796 22.4 125.006 21.782 125.006 20.978C125.006 20.174 124.802 19.556 124.394 19.124C123.998 18.692 123.506 18.476 122.918 18.476C122.318 18.476 121.82 18.692 121.424 19.124C121.028 19.544 120.83 20.162 120.83 20.978C120.83 21.782 121.022 22.4 121.406 22.832C121.802 23.264 122.294 23.48 122.882 23.48ZM132.849 17.63C133.209 17.078 133.659 16.646 134.199 16.334C134.739 16.01 135.339 15.848 135.999 15.848V19.106H135.153C134.385 19.106 133.809 19.274 133.425 19.61C133.041 19.934 132.849 20.51 132.849 21.338V26H129.771V15.956H132.849V17.63ZM147.73 15.956L141.43 30.77H138.118L140.422 25.658L136.336 15.956H139.774L142.096 22.238L144.4 15.956H147.73Z" fill="#0000FF"/>
<defs>
<clipPath id="clip0_4_10">
<rect width="38.0952" height="38.0952" fill="white" transform="translate(0.952393 0.952332)"/>
</clipPath>
</defs>
</svg>
