<svg width="424" height="427" viewBox="0 0 424 427" fill="none" xmlns="http://www.w3.org/2000/svg">
<path d="M106.956 409.754C106.488 409.775 106.025 409.652 105.629 409.402C105.234 409.152 104.924 408.786 104.744 408.354C104.563 407.922 104.52 407.445 104.619 406.987C104.719 406.53 104.957 406.114 105.301 405.796C105.358 405.567 105.399 405.403 105.457 405.174C105.009 404.037 104.232 403.06 103.225 402.367C102.218 401.675 101.027 401.298 99.8048 401.287C98.5825 401.275 97.3846 401.629 96.3647 402.303C95.3447 402.976 94.5492 403.939 94.0801 405.067C91.373 411.401 87.8694 417.958 89.6118 424.935C78.1027 400.552 82.0166 370.221 99.0256 349.368C103.727 346.779 107.538 342.18 108.53 336.839C106.203 337.627 103.302 335.735 105.051 333.285C105.81 332.349 106.575 331.42 107.334 330.483C98.4949 321.073 87.9637 335.862 97.6926 348.562C94.51 352.551 91.7533 356.862 89.4673 361.423C89.9952 356.579 89.3652 351.679 87.629 347.126C85.8694 342.883 82.5713 339.309 79.6669 335.641C76.1356 331.171 68.8677 333.233 68.3925 338.905C71.6514 339.976 72.0748 344.682 68.347 345.326C69.3234 355.878 76.2196 365.575 85.7177 370.203C82.2101 380.041 80.8405 390.514 81.7001 400.922C80.0235 388.758 66.9607 385.806 57.8305 380.971C57.2494 380.598 56.5724 380.403 55.882 380.408C55.1917 380.414 54.5179 380.62 53.9429 381.002C53.3678 381.384 52.9163 381.924 52.6435 382.558C52.3707 383.192 52.2883 383.892 52.4065 384.572C53.6666 385.084 54.8728 385.72 56.0072 386.471C56.5387 386.828 56.9467 387.341 57.1752 387.939C57.4037 388.537 57.4416 389.191 57.2837 389.812C57.1257 390.432 56.7796 390.989 56.2929 391.405C55.8061 391.821 55.2025 392.076 54.5648 392.136C59.167 403.522 71.0657 411.168 83.2863 411.125C84.4607 416.227 86.1623 421.192 88.3636 425.942H106.501C106.567 425.741 106.625 425.533 106.684 425.331C105.005 425.437 103.319 425.337 101.665 425.033C106.107 419.775 109.542 417.093 106.957 409.754L106.956 409.754Z" fill="#F2F2F2"/>
<path d="M268.658 409.754C269.126 409.775 269.589 409.652 269.985 409.402C270.381 409.152 270.69 408.786 270.871 408.354C271.051 407.922 271.095 407.445 270.995 406.987C270.895 406.53 270.658 406.114 270.314 405.796C270.256 405.567 270.215 405.403 270.157 405.174C270.605 404.037 271.382 403.06 272.389 402.367C273.396 401.675 274.587 401.298 275.81 401.287C277.032 401.275 278.23 401.629 279.25 402.303C280.27 402.976 281.065 403.939 281.534 405.067C284.241 411.401 287.745 417.958 286.002 424.935C297.512 400.552 293.598 370.221 276.589 349.368C271.887 346.779 268.077 342.18 267.084 336.839C269.411 337.627 272.312 335.735 270.563 333.285C269.805 332.349 269.039 331.42 268.281 330.483C277.119 321.073 287.651 335.862 277.922 348.562C281.104 352.551 283.861 356.862 286.147 361.423C285.619 356.579 286.249 351.679 287.985 347.126C289.745 342.883 293.043 339.309 295.947 335.641C299.479 331.171 306.747 333.233 307.222 338.905C303.963 339.976 303.539 344.682 307.267 345.326C306.291 355.878 299.395 365.575 289.897 370.203C293.404 380.041 294.774 390.514 293.914 400.922C295.591 388.758 308.654 385.806 317.784 380.971C318.365 380.598 319.042 380.403 319.732 380.408C320.423 380.414 321.096 380.62 321.671 381.002C322.246 381.384 322.698 381.924 322.971 382.558C323.244 383.192 323.326 383.892 323.208 384.572C321.948 385.084 320.742 385.72 319.607 386.471C319.076 386.828 318.668 387.341 318.439 387.939C318.211 388.537 318.173 389.191 318.331 389.812C318.489 390.432 318.835 390.989 319.321 391.405C319.808 391.821 320.412 392.076 321.05 392.136C316.447 403.522 304.549 411.168 292.328 411.125C291.154 416.227 289.452 421.192 287.251 425.942H269.113C269.048 425.741 268.989 425.533 268.931 425.331C270.61 425.437 272.295 425.337 273.95 425.033C269.508 419.775 266.073 417.093 268.658 409.754L268.658 409.754Z" fill="#F2F2F2"/>
<path d="M275.384 412.446L267.573 414.222L257 384.949L268.529 382.327L275.384 412.446Z" fill="#FFB6B6"/>
<path d="M277.513 420.529L253.493 425.992L253.423 425.688C252.859 423.21 253.303 420.609 254.658 418.457C256.012 416.306 258.166 414.78 260.645 414.216L260.646 414.216L264.276 409.89L273.22 411.356L275.317 410.879L277.513 420.529Z" fill="#2F2E41"/>
<path d="M401.39 269.761L405.684 276.521L381.644 296.296L375.306 286.319L401.39 269.761Z" fill="#FFB6B6"/>
<path d="M408.293 265.044L421.499 285.832L421.236 285.999C419.089 287.361 416.489 287.816 414.007 287.262C411.525 286.708 409.365 285.192 408.002 283.046L408.001 283.046L402.707 281.078L401.088 272.164L399.936 270.349L408.293 265.044Z" fill="#2F2E41"/>
<path d="M152.398 197.488L150.469 186.309L179.8 173.07L186.134 161.859C185.93 160.875 186.001 159.854 186.341 158.908C186.68 157.963 187.275 157.129 188.058 156.5C188.842 155.871 189.784 155.47 190.781 155.343C191.778 155.215 192.791 155.366 193.708 155.778C194.625 156.19 195.41 156.847 195.976 157.677C196.543 158.507 196.869 159.477 196.919 160.481C196.968 161.484 196.74 162.482 196.258 163.364C195.776 164.245 195.059 164.977 194.187 165.477L183.767 181.581L152.398 197.488Z" fill="#A0616A"/>
<path d="M143.483 188.35L156.691 181.605L160.188 194.729L151.013 201.527L143.483 188.35Z" fill="#6C63FF"/>
<path d="M113.844 411.429L121.83 411.429L125.629 380.635L113.842 380.636L113.844 411.429Z" fill="#A0616A"/>
<path d="M124.487 412.148V406.736L122.388 406.864L113.841 407.37L111.863 407.491L110.351 425.618L110.27 426.59H115.941L116.123 425.625L116.947 421.238L119.073 425.625L119.539 426.59H134.573C135.468 426.584 136.324 426.226 136.956 425.593C137.588 424.96 137.945 424.103 137.949 423.209C138.583 420.246 126.081 413.842 124.487 412.148Z" fill="#2F2E41"/>
<path d="M19.0429 289.222L17.1812 296.986L46.2512 307.859L48.9986 296.401L19.0429 289.222Z" fill="#A0616A"/>
<path d="M16.494 299.401L21.759 300.663L22.1238 298.592L23.6242 290.166L23.9672 288.215L6.68661 282.519L5.76015 282.214L4.43794 287.726L5.33421 288.128L9.40934 289.952L4.64636 290.996L3.59897 291.224L0.0935759 305.838C-0.109512 306.709 0.0393111 307.625 0.507758 308.387C0.976205 309.149 1.72643 309.696 2.59553 309.908C5.32955 311.216 14.4747 300.555 16.494 299.401Z" fill="#2F2E41"/>
<path d="M126.192 212.135L115.913 207.331L95.4127 232.13L82.926 235.287C82.0304 234.831 81.0262 234.631 80.0241 234.709C79.022 234.788 78.0611 235.142 77.2476 235.732C76.434 236.322 75.7995 237.125 75.414 238.053C75.0285 238.981 74.9071 239.998 75.0632 240.99C75.2193 241.983 75.6469 242.913 76.2986 243.678C76.9503 244.443 77.8008 245.013 78.7563 245.325C79.7117 245.637 80.7348 245.679 81.7126 245.446C82.6904 245.213 83.5849 244.715 84.2972 244.006L102.582 238.198L126.192 212.135Z" fill="#A0616A"/>
<path d="M271.93 120.33C269.751 120.33 267.621 119.684 265.809 118.474C263.998 117.264 262.586 115.544 261.752 113.531C260.918 111.519 260.7 109.304 261.125 107.168C261.55 105.032 262.599 103.069 264.14 101.529C265.681 99.9888 267.644 98.9399 269.781 98.515C271.918 98.09 274.133 98.3081 276.146 99.1417C278.159 99.9753 279.88 101.387 281.091 103.198C282.301 105.009 282.947 107.138 282.947 109.317C282.944 112.236 281.782 115.036 279.717 117.101C277.652 119.165 274.851 120.327 271.93 120.33ZM271.93 99.5673C270.001 99.5673 268.116 100.139 266.512 101.21C264.908 102.282 263.658 103.804 262.92 105.586C262.182 107.367 261.988 109.327 262.365 111.219C262.741 113.11 263.67 114.847 265.034 116.21C266.398 117.574 268.136 118.502 270.028 118.879C271.919 119.255 273.88 119.062 275.663 118.324C277.445 117.586 278.968 116.336 280.039 114.733C281.111 113.13 281.683 111.245 281.683 109.317C281.68 106.732 280.652 104.254 278.823 102.426C276.995 100.598 274.516 99.5702 271.93 99.5673Z" fill="#E6E6E6"/>
<path d="M271.153 113.466C271.131 113.466 271.109 113.465 271.087 113.464C270.891 113.454 270.7 113.403 270.526 113.312C270.352 113.222 270.2 113.095 270.08 112.941L268.345 110.71C268.235 110.57 268.154 110.409 268.107 110.237C268.059 110.065 268.046 109.885 268.069 109.708C268.091 109.531 268.147 109.36 268.236 109.205C268.324 109.05 268.442 108.914 268.583 108.804L268.645 108.756C268.786 108.646 268.947 108.565 269.119 108.518C269.291 108.471 269.471 108.458 269.648 108.48C269.825 108.502 269.996 108.559 270.151 108.647C270.307 108.735 270.443 108.853 270.552 108.994C270.64 109.106 270.751 109.199 270.878 109.264C271.004 109.33 271.144 109.368 271.286 109.375C271.428 109.382 271.571 109.358 271.703 109.305C271.836 109.252 271.955 109.17 272.053 109.067L275.577 105.348C275.825 105.087 276.167 104.935 276.527 104.925C276.887 104.915 277.236 105.049 277.498 105.296L277.556 105.351C277.685 105.474 277.789 105.621 277.862 105.784C277.935 105.947 277.975 106.122 277.98 106.3C277.985 106.479 277.954 106.656 277.89 106.823C277.826 106.989 277.73 107.142 277.608 107.271L272.139 113.041C272.012 113.175 271.859 113.282 271.69 113.355C271.52 113.428 271.338 113.466 271.153 113.466Z" fill="#E6E6E6"/>
<path d="M216.932 253.668C214.753 253.668 212.623 253.022 210.811 251.812C209 250.602 207.588 248.882 206.754 246.87C205.92 244.857 205.702 242.643 206.127 240.506C206.552 238.37 207.601 236.408 209.142 234.867C210.683 233.327 212.646 232.278 214.783 231.853C216.92 231.428 219.135 231.647 221.148 232.48C223.161 233.314 224.882 234.725 226.093 236.536C227.303 238.348 227.949 240.477 227.949 242.655C227.946 245.575 226.784 248.374 224.719 250.439C222.653 252.504 219.853 253.665 216.932 253.668ZM216.932 232.906C215.003 232.906 213.118 233.477 211.514 234.549C209.91 235.62 208.66 237.143 207.922 238.924C207.184 240.706 206.99 242.666 207.367 244.557C207.743 246.448 208.672 248.185 210.036 249.549C211.4 250.912 213.138 251.841 215.03 252.217C216.921 252.593 218.882 252.4 220.664 251.662C222.447 250.924 223.97 249.675 225.041 248.071C226.113 246.468 226.685 244.583 226.685 242.655C226.682 240.07 225.654 237.592 223.825 235.764C221.997 233.937 219.518 232.909 216.932 232.906Z" fill="#E6E6E6"/>
<path d="M216.155 246.804C216.133 246.804 216.11 246.803 216.088 246.802C215.893 246.793 215.701 246.741 215.528 246.651C215.354 246.561 215.202 246.434 215.082 246.279L213.346 244.049C213.236 243.908 213.156 243.747 213.108 243.575C213.061 243.403 213.048 243.224 213.07 243.047C213.092 242.87 213.149 242.699 213.237 242.544C213.325 242.388 213.443 242.252 213.584 242.143L213.647 242.094C213.787 241.985 213.949 241.904 214.121 241.856C214.293 241.809 214.472 241.796 214.65 241.818C214.827 241.84 214.998 241.897 215.153 241.985C215.308 242.074 215.444 242.192 215.554 242.332C215.641 242.445 215.752 242.537 215.879 242.603C216.006 242.669 216.145 242.706 216.287 242.713C216.43 242.72 216.572 242.696 216.705 242.643C216.837 242.59 216.956 242.509 217.055 242.405L220.578 238.687C220.826 238.426 221.168 238.273 221.528 238.264C221.888 238.254 222.238 238.387 222.499 238.635L222.557 238.69C222.687 238.812 222.791 238.959 222.864 239.122C222.936 239.285 222.976 239.461 222.981 239.639C222.986 239.817 222.956 239.995 222.892 240.161C222.828 240.328 222.732 240.48 222.609 240.61L217.141 246.38C217.014 246.514 216.861 246.621 216.691 246.694C216.522 246.766 216.339 246.804 216.155 246.804Z" fill="#E6E6E6"/>
<path d="M96.1891 105.163C94.0101 105.163 91.88 104.517 90.0682 103.307C88.2565 102.097 86.8444 100.377 86.0105 98.3647C85.1767 96.3523 84.9585 94.1379 85.3836 92.0016C85.8087 89.8652 86.8579 87.9028 88.3987 86.3626C89.9395 84.8224 91.9026 83.7735 94.0397 83.3485C96.1768 82.9236 98.392 83.1417 100.405 83.9752C102.418 84.8088 104.139 86.2204 105.35 88.0315C106.56 89.8426 107.206 91.9719 107.206 94.1501C107.203 97.07 106.041 99.8694 103.976 101.934C101.91 103.999 99.11 105.16 96.1891 105.163ZM96.1891 84.4008C94.2601 84.4008 92.3745 84.9726 90.7707 86.0439C89.1668 87.1151 87.9168 88.6378 87.1786 90.4192C86.4404 92.2007 86.2473 94.1609 86.6236 96.0521C86.9999 97.9433 87.9288 99.6805 89.2928 101.044C90.6567 102.407 92.3945 103.336 94.2864 103.712C96.1782 104.088 98.1392 103.895 99.9213 103.157C101.703 102.419 103.227 101.17 104.298 99.5666C105.37 97.9633 105.942 96.0783 105.942 94.1501C105.939 91.5653 104.911 89.0873 103.082 87.2595C101.254 85.4318 98.7748 84.4037 96.1891 84.4008Z" fill="#E6E6E6"/>
<path d="M95.4115 98.2991C95.3893 98.2991 95.3672 98.2984 95.345 98.2973C95.1495 98.2879 94.9582 98.2363 94.7845 98.146C94.6107 98.0558 94.4585 97.929 94.3383 97.7745L92.6028 95.544C92.4932 95.4033 92.4124 95.2423 92.3651 95.0703C92.3177 94.8983 92.3048 94.7187 92.3269 94.5416C92.349 94.3646 92.4058 94.1937 92.494 94.0386C92.5822 93.8836 92.7001 93.7474 92.841 93.6379L92.9034 93.5893C93.0443 93.4797 93.2053 93.3989 93.3774 93.3515C93.5496 93.3041 93.7293 93.2912 93.9064 93.3133C94.0836 93.3354 94.2546 93.3922 94.4097 93.4805C94.5649 93.5687 94.7011 93.6866 94.8107 93.8275C94.8983 93.94 95.0092 94.0323 95.1359 94.098C95.2625 94.1637 95.4018 94.2013 95.5443 94.2083C95.6868 94.2152 95.8291 94.1913 95.9615 94.1382C96.0939 94.0851 96.2133 94.004 96.3115 93.9006L99.8352 90.1818C100.083 89.9206 100.425 89.7685 100.785 89.7587C101.145 89.7489 101.494 89.8823 101.756 90.1296L101.814 90.1847C101.944 90.3073 102.048 90.4543 102.121 90.6172C102.193 90.7801 102.233 90.9557 102.238 91.134C102.243 91.3124 102.212 91.4899 102.149 91.6565C102.085 91.823 101.989 91.9754 101.866 92.1049L96.3975 97.8749C96.2706 98.0089 96.1178 98.1157 95.9482 98.1886C95.7787 98.2615 95.596 98.2992 95.4115 98.2991Z" fill="#E6E6E6"/>
<path d="M184.393 294.617C158.845 294.617 129.485 266.277 103.508 279.742C24.8574 320.51 35.6841 252.29 13.0884 226.919L13.8302 225.432C38.7619 247.779 69.89 265.961 103.849 278.012C134.538 288.903 165.457 293.949 193.252 292.617L193.3 294.405C190.365 294.547 187.396 294.617 184.393 294.617Z" fill="#F2F2F2"/>
<path d="M149.348 103.008C152.297 103.008 154.688 99.8027 154.688 95.8493C154.688 91.8959 152.297 88.691 149.348 88.691C146.399 88.691 144.008 91.8959 144.008 95.8493C144.008 99.8027 146.399 103.008 149.348 103.008Z" fill="#E6E6E6"/>
<path d="M211.026 214.677C208.585 216.303 206.086 212.433 208.574 210.879C211.015 209.253 213.514 213.123 211.026 214.677Z" fill="#E6E6E6"/>
<path d="M196.973 84.3824C200.814 84.3824 203.927 81.2702 203.927 77.4311C203.927 73.592 200.814 70.4798 196.973 70.4798C193.133 70.4798 190.02 73.592 190.02 77.4311C190.02 81.2702 193.133 84.3824 196.973 84.3824Z" fill="#FF6584"/>
<path opacity="0.3" d="M221.295 115.524L260.865 0L217.415 114.141C217.2 114.412 217.053 114.73 216.986 115.069C216.919 115.408 216.933 115.758 217.028 116.091C217.124 116.423 217.297 116.728 217.534 116.98C217.77 117.232 218.064 117.424 218.389 117.54C218.715 117.657 219.064 117.693 219.407 117.648C219.75 117.602 220.077 117.476 220.361 117.278C220.645 117.081 220.878 116.819 221.04 116.514C221.203 116.209 221.29 115.869 221.295 115.524H221.295Z" fill="#F0F0F0"/>
<path d="M181.355 256.265C185.092 256.265 188.121 253.237 188.121 249.502C188.121 245.767 185.092 242.739 181.355 242.739C177.618 242.739 174.589 245.767 174.589 249.502C174.589 253.237 177.618 256.265 181.355 256.265Z" fill="#F2F2F2"/>
<path d="M115.828 252.081C115.828 252.081 98.9618 263.06 103.422 270.356C103.575 270.607 83.2747 297.41 83.2747 297.41L44.9518 294.978L43.6016 307.8L77.7194 317.678C77.7194 317.678 86.0659 323.807 92.5138 317.054C98.9618 310.3 120.439 289.618 120.439 289.618L121.475 331.374L110.694 389.236L126.792 388.216L142.46 330.166L148.244 264.41L115.828 252.081Z" fill="#2F2E41"/>
<path d="M127.842 186.19L120.75 191.564L112.665 208.811L120.439 219.365C120.439 219.365 126.978 230.694 116.511 241.665C106.045 252.636 98.0076 264.353 106.385 263.935C114.763 263.516 148.693 280.768 148.916 266.634C149.139 252.5 149.591 241.665 149.591 241.665L158.487 219.11C158.487 219.11 163.787 205.655 160.066 201.628C156.345 197.6 151.362 192.453 151.362 192.453L142.302 183.397H134.121L127.842 186.19Z" fill="#6C63FF"/>
<path d="M141.083 153.051C156.995 162.102 143.932 185.984 127.723 177.48C111.812 168.429 124.875 144.547 141.083 153.051Z" fill="#A0616A"/>
<path d="M149.591 158.069C148.476 159.519 146.147 158.839 141.585 159.874C141.595 158.328 141.417 156.787 141.053 155.284C140.714 157.145 139.97 158.908 138.874 160.449C134.913 160.888 139.769 172.917 137.741 181.761C135.128 163.103 129.632 167.991 132.408 171.692C134.186 174.061 133.001 181.169 127.668 177.615C118.87 181.795 106.338 161.031 120.227 151.293C119.979 146.029 125.838 145.197 129.446 146.816C138.202 140.296 148.205 148.65 149.591 158.069Z" fill="#2F2E41"/>
<path d="M108.765 144.455C105.222 166.228 86.2345 140.451 77.3065 161.878C74.4994 169.637 79.3157 175.188 82.3621 181.629C83.0574 186.922 76.169 189.607 75.4475 194.48C75.2466 205.65 93.2744 204.966 98.3142 197.919C103.493 190.542 97.3089 180.643 100.421 172.725C104.796 161.731 122.587 161.649 124.137 148.858C121.136 144.585 113.064 139.691 108.765 144.455Z" fill="#2F2E41"/>
<path d="M123.116 146.583C123 146.631 122.884 146.68 122.78 146.735H122.774C122.677 146.784 122.579 146.833 122.482 146.887C122.469 146.894 122.463 146.9 122.451 146.906C122.323 146.784 122.195 146.662 122.061 146.54C122.026 146.738 122.034 146.942 122.085 147.137L122.103 147.211C122.225 147.339 122.354 147.461 122.488 147.589C122.61 147.497 122.726 147.4 122.848 147.308C122.921 147.247 122.994 147.186 123.073 147.125C123.085 146.967 123.104 146.784 123.122 146.583L123.116 146.583ZM126.788 139.802C124.067 139.18 123.189 142.735 122.927 144.448C121.939 138.229 117.828 140.186 119.249 144.43C119.702 145.687 120.415 146.833 121.341 147.796C121.469 147.942 121.609 148.089 121.756 148.235C121.591 149.089 122.421 148.869 123.543 148.083C124.372 147.493 125.138 146.821 125.83 146.076C128.069 143.729 129.813 140.589 126.788 139.802ZM126.873 143.302C126.034 144.384 125.092 145.383 124.061 146.284C123.738 146.576 123.409 146.857 123.073 147.125C123.067 147.18 123.067 147.229 123.061 147.272C123.038 147.331 123.009 147.388 122.976 147.442C122.634 148.058 122.25 147.723 122.103 147.211C122.091 147.192 122.073 147.174 122.061 147.156C121.573 146.652 121.149 146.091 120.798 145.485C118.279 141.119 122.335 138.15 122.134 146.302C122.097 146.377 122.072 146.457 122.061 146.54C122.026 146.738 122.034 146.942 122.085 147.137L122.103 147.211C122.225 147.339 122.354 147.461 122.488 147.589C122.61 147.497 122.726 147.4 122.848 147.308C122.921 147.247 122.994 147.186 123.073 147.125C123.085 146.967 123.104 146.784 123.122 146.583V146.576C123.281 144.942 123.714 142.003 124.513 141.205C126.269 139.857 128.545 141.314 126.873 143.302ZM123.116 146.583C123 146.631 122.884 146.68 122.78 146.735H122.774C122.677 146.784 122.579 146.833 122.482 146.887C122.469 146.894 122.463 146.9 122.451 146.906C122.323 146.784 122.195 146.662 122.061 146.54C122.026 146.738 122.034 146.942 122.085 147.137L122.103 147.211C122.225 147.339 122.354 147.461 122.488 147.589C122.61 147.497 122.726 147.4 122.848 147.308C122.921 147.247 122.994 147.186 123.073 147.125C123.085 146.967 123.104 146.784 123.122 146.583L123.116 146.583Z" fill="#2F2E41"/>
<path d="M270.185 266.625L264.308 281.945L236.74 336.304L260.964 399.54L273.465 396.241L263.161 336.304L292.724 300.398L327.831 324.201C327.831 324.201 343.402 336.352 349.325 324.833C355.248 313.313 393.576 288.812 393.576 288.812L384.094 278.701L339.957 299.349L309.494 256.486L270.185 266.625Z" fill="#2F2E41"/>
<path d="M299.837 194.36L290.163 183.971L273.569 181.689L253.236 195.918L253.441 211.668L263.492 248.781C263.492 248.781 259.663 275.444 270.357 275.177C281.051 274.91 286.88 269.58 291.235 270.665C295.591 271.75 314.105 276.367 315.279 271.531C316.452 266.694 322.689 270.157 322.415 265.582C322.142 261.007 305.531 228.028 305.531 228.028L309.661 195.046L299.837 194.36Z" fill="#6C63FF"/>
<path d="M361.088 146.535C361.175 147.397 361.071 148.267 360.785 149.084C360.499 149.901 360.037 150.646 359.432 151.266C358.826 151.885 358.093 152.364 357.282 152.67C356.471 152.975 355.604 153.099 354.74 153.033L332.494 195.326L326.521 186.161L349.26 146.245C349.467 144.802 350.197 143.485 351.31 142.544C352.424 141.603 353.845 141.102 355.303 141.138C356.761 141.174 358.155 141.743 359.221 142.738C360.288 143.732 360.952 145.083 361.088 146.535Z" fill="#FFB6B6"/>
<path d="M291.054 202.224C291.054 202.224 290.172 209.747 298.644 211.61C307.116 213.472 330.589 200.065 334.437 198.017C335.642 197.376 337.277 194.233 338.955 190.217C339.708 188.415 340.469 186.436 341.205 184.43C341.63 183.269 343.668 182.952 344.069 181.8C344.467 180.655 343.23 178.674 343.591 177.595C345.305 172.471 346.519 168.407 346.519 168.407L340.904 157.862C333.05 162.013 329.022 171.155 326.06 181.687L291.054 202.224Z" fill="#6C63FF"/>
<path d="M192.108 156.247C192.24 157.103 192.558 157.92 193.04 158.639C193.522 159.359 194.155 159.964 194.896 160.413C195.637 160.861 196.468 161.142 197.329 161.235C198.19 161.327 199.062 161.23 199.881 160.95L232.008 196.333L235.496 185.965L203.488 153.008C202.926 151.662 201.89 150.57 200.576 149.937C199.262 149.304 197.761 149.175 196.359 149.575C194.956 149.974 193.748 150.874 192.965 152.104C192.182 153.334 191.877 154.808 192.108 156.247Z" fill="#FFB6B6"/>
<path d="M273.855 192.644C273.855 192.644 276.593 199.707 268.856 203.63C261.12 207.552 235.038 200.444 230.799 199.424C229.472 199.105 227.102 196.47 224.473 193.003C223.292 191.446 222.06 189.721 220.845 187.962C220.143 186.944 218.091 187.147 217.414 186.132C216.741 185.123 217.444 182.897 216.824 181.942C213.882 177.41 211.688 173.778 211.688 173.778L214.485 162.165C223.128 164.219 229.317 172.062 234.822 181.518L273.855 192.644Z" fill="#6C63FF"/>
<path d="M282.197 179.046C290.917 179.046 297.986 171.979 297.986 163.262C297.986 154.545 290.917 147.479 282.197 147.479C273.477 147.479 266.408 154.545 266.408 163.262C266.408 171.979 273.477 179.046 282.197 179.046Z" fill="#FFB6B6"/>
<path d="M300.22 154.225C298.559 151.657 295.443 149.945 292.421 150.426C292.14 148.498 291.335 146.685 290.094 145.183C288.853 143.681 287.224 142.548 285.384 141.908C283.544 141.267 281.563 141.144 279.657 141.551C277.752 141.958 275.994 142.88 274.577 144.216C274.11 143.888 273.567 143.686 273 143.629C272.432 143.572 271.86 143.663 271.338 143.892C270.298 144.365 269.393 145.091 268.707 146.003C266.973 148.165 265.858 150.755 265.48 153.5C265.103 156.244 265.477 159.04 266.562 161.589C266.193 160.247 267.538 158.985 268.898 158.683C270.257 158.382 271.682 158.667 273.061 158.471C274.827 158.22 276.415 157.195 278.185 156.965C279.685 156.867 281.19 157.061 282.617 157.534C284.044 158.008 285.547 158.209 287.048 158.129C288.538 157.952 290.456 163.594 290.43 167.567C290.425 168.321 290.58 169.287 291.317 169.447C292.223 169.644 292.749 168.393 293.611 168.052C294.009 167.938 294.436 167.983 294.801 168.177C295.166 168.371 295.442 168.7 295.57 169.093C295.678 169.493 295.69 169.913 295.604 170.318C295.517 170.724 295.335 171.102 295.073 171.423C294.542 172.059 293.913 172.605 293.208 173.04L293.563 173.335C293.901 173.692 294.352 173.92 294.839 173.98C295.326 174.041 295.819 173.93 296.233 173.667C297.048 173.115 297.707 172.364 298.149 171.485C299.815 168.911 301.006 166.059 301.665 163.064C302.221 160.057 301.881 156.794 300.22 154.225Z" fill="#2F2E41"/>
<path d="M417.027 216.475C396.661 231.894 356.14 227.023 343.565 253.435C305.491 333.404 272.918 272.487 239.581 265.899L239.274 264.266C272.646 267.033 308.442 262.74 342.792 251.85C373.834 242.01 401.529 227.372 422.882 209.534L424 210.93C421.746 212.815 419.421 214.663 417.027 216.475Z" fill="#F2F2F2"/>
<path d="M330.922 425.922C330.437 427.359 53.5028 427.359 52.9795 425.926C53.4639 424.486 330.398 424.486 330.922 425.922Z" fill="#CCCCCC"/>
</svg>
