<svg width="452" height="339" viewBox="0 0 452 339" fill="none" xmlns="http://www.w3.org/2000/svg">
<g clip-path="url(#clip0_4_18)">
<g opacity="0.15">
<path opacity="0.15" d="M153.32 170.244L153.241 170.267L153.179 170.286L153.216 169.995C153.253 170.077 153.286 170.165 153.32 170.244Z" fill="black"/>
</g>
<path d="M445.839 173.82L442.432 198.977L442.372 199.42L433.739 263.104L433.533 264.63L425.849 321.353L425.651 322.811H32.6451L32.4813 321.353L26.1025 264.63L25.9302 263.104L16.167 176.227L16.0427 175.106L15.715 172.21V172.207L15.0822 166.594L9.37005 115.772C9.16665 113.981 9.2062 112.187 9.46892 110.439C10.0198 106.766 11.5594 103.274 13.9748 100.336L14.5765 99.6047C14.5765 99.6047 14.5765 99.6018 14.5793 99.6018L51.163 55.1137L52.1461 53.9159L71.1894 30.7594L78.3254 22.0838L103.197 -8.16623C107.852 -13.8247 115.166 -16.726 122.531 -15.8389L354.922 12.1879L375.313 14.6484C381.855 15.4366 387.579 19.1091 390.952 24.4823C391.672 25.6179 392.282 26.8355 392.774 28.1124L437.434 144.822L441.29 154.901L443.118 159.675L444.666 163.718C445.898 166.933 446.299 170.408 445.839 173.82Z" fill="#F4F4F4"/>
<path d="M433.536 264.63L425.852 321.35L425.651 322.808H32.6485L32.4847 321.35L26.1059 264.63H433.536Z" fill="#E8E8E8"/>
<path d="M338.229 322.808H164.999C166.148 316.952 204.486 312.245 251.613 312.245C298.741 312.245 337.076 316.949 338.229 322.808Z" fill="#CCCCCC"/>
<path d="M444.663 163.713C445.898 166.936 446.302 170.408 445.841 173.821L442.435 198.977L442.375 199.421L433.742 263.105H25.9325L16.1665 176.227C16.4321 176.242 16.6976 176.258 16.966 176.278C17.4717 176.309 17.9886 176.346 18.5028 176.38C20.3503 176.51 22.1979 176.634 24.0511 176.759C33.8737 177.414 43.7414 177.993 53.6289 178.47C53.9764 178.485 54.3267 178.504 54.677 178.521C54.7392 178.524 54.8013 178.53 54.8635 178.53C55.307 178.552 55.7533 178.572 56.1997 178.592C58.5981 178.705 60.9965 178.809 63.3978 178.908C63.4006 178.906 63.4006 178.908 63.4063 178.908C63.6549 178.92 63.9119 178.928 64.1634 178.939C68.6834 179.126 73.2005 179.281 77.7234 179.417C77.9409 179.425 78.1641 179.428 78.3816 179.437C79.1387 179.459 79.8986 179.479 80.6557 179.502C80.8111 179.504 80.9665 179.51 81.1247 179.513C88.0996 179.697 95.0745 179.815 102.047 179.863C104.448 179.877 106.849 179.886 109.25 179.886C113.423 179.883 117.59 179.855 121.757 179.795C126.754 179.722 131.746 179.612 136.732 179.454C136.938 179.445 137.142 179.442 137.348 179.434C137.594 179.425 137.837 179.42 138.077 179.408C138.314 179.4 138.551 179.394 138.786 179.386C142.475 179.259 146.153 179.106 149.831 178.928C149.933 178.925 150.029 178.917 150.131 178.914C151.055 178.869 151.979 178.824 152.902 178.773C159.662 178.567 166.428 178.312 173.189 177.953C186.243 177.264 199.269 176.191 212.176 174.369C214.668 174.018 217.16 173.637 219.643 173.222C223.25 172.631 226.841 171.97 230.423 171.236C237.245 169.837 244 168.182 250.718 166.374C257.611 164.523 264.462 162.515 271.304 160.475C271.459 160.43 271.614 160.385 271.773 160.337C273.058 159.953 274.349 159.566 275.637 159.179C276.16 159.026 276.685 158.865 277.208 158.71C278.657 158.275 280.112 157.839 281.567 157.404C281.652 157.382 281.739 157.354 281.824 157.328C288.181 155.433 294.54 153.56 300.933 151.819H300.936C305.428 150.588 309.934 149.421 314.468 148.35C317.728 147.579 321.002 146.859 324.29 146.192C325.943 145.856 327.595 145.531 329.254 145.22C340.822 143.059 352.529 141.539 364.284 140.709C364.552 140.686 364.826 140.669 365.097 140.647H365.109C365.47 140.621 365.835 140.596 366.199 140.573C368.849 140.401 371.51 140.268 374.168 140.169C374.581 140.149 374.996 140.135 375.409 140.124H375.411C376.414 140.09 377.412 140.059 378.414 140.036C378.742 140.028 379.07 140.022 379.4 140.017C385.322 139.895 391.248 139.954 397.158 140.2C397.268 140.2 397.376 140.209 397.486 140.211C410.913 140.779 424.275 142.296 437.426 144.83C440.471 145.415 443.505 146.059 446.522 146.751C445.517 148.715 444.375 150.619 443.11 152.438C442.525 153.28 441.918 154.105 441.282 154.91L443.11 159.684L444.663 163.713Z" fill="#4D61FC"/>
<path opacity="0.34" d="M444.663 163.713C445.898 166.936 446.302 170.408 445.841 173.821L442.435 198.977L442.375 199.421L433.742 263.105H25.9325L16.1665 176.227C16.4321 176.242 16.6976 176.258 16.966 176.278C17.4717 176.309 17.9886 176.346 18.5028 176.38C20.3503 176.51 22.1979 176.634 24.0511 176.759C33.8737 177.414 43.7414 177.993 53.6289 178.47C53.9764 178.485 54.3267 178.504 54.677 178.521C54.7392 178.524 54.8013 178.53 54.8635 178.53C55.307 178.552 55.7533 178.572 56.1997 178.592C58.5981 178.705 60.9965 178.809 63.3978 178.908C63.4006 178.906 63.4006 178.908 63.4063 178.908C63.6549 178.92 63.9119 178.928 64.1634 178.939C68.6834 179.126 73.2005 179.281 77.7234 179.417C77.9409 179.425 78.1641 179.428 78.3816 179.437C79.1387 179.459 79.8986 179.479 80.6557 179.502C80.8111 179.504 80.9665 179.51 81.1247 179.513C88.0996 179.697 95.0745 179.815 102.047 179.863C104.448 179.877 106.849 179.886 109.25 179.886C113.423 179.883 117.59 179.855 121.757 179.795C126.754 179.722 131.746 179.612 136.732 179.454C136.938 179.445 137.142 179.442 137.348 179.434C137.594 179.425 137.837 179.42 138.077 179.408C138.314 179.4 138.551 179.394 138.786 179.386C142.475 179.259 146.153 179.106 149.831 178.928C149.933 178.925 150.029 178.917 150.131 178.914C151.055 178.869 151.979 178.824 152.902 178.773C159.662 178.567 166.428 178.312 173.189 177.953C186.243 177.264 199.269 176.191 212.176 174.369C214.668 174.018 217.16 173.637 219.643 173.222C223.25 172.631 226.841 171.97 230.423 171.236C237.245 169.837 244 168.182 250.718 166.374C257.611 164.523 264.462 162.515 271.304 160.475C271.459 160.43 271.614 160.385 271.773 160.337C273.058 159.953 274.349 159.566 275.637 159.179C276.16 159.026 276.685 158.865 277.208 158.71C278.657 158.275 280.112 157.839 281.567 157.404C281.652 157.382 281.739 157.354 281.824 157.328C288.181 155.433 294.54 153.56 300.933 151.819H300.936C305.428 150.588 309.934 149.421 314.468 148.35C317.728 147.579 321.002 146.859 324.29 146.192C325.943 145.856 327.595 145.531 329.254 145.22C340.822 143.059 352.529 141.539 364.284 140.709C364.552 140.686 364.826 140.669 365.097 140.647H365.109C365.47 140.621 365.835 140.596 366.199 140.573C368.849 140.401 371.51 140.268 374.168 140.169C374.581 140.149 374.996 140.135 375.409 140.124H375.411C376.414 140.09 377.412 140.059 378.414 140.036C378.742 140.028 379.07 140.022 379.4 140.017C385.322 139.895 391.248 139.954 397.158 140.2C397.268 140.2 397.376 140.209 397.486 140.211C410.913 140.779 424.275 142.296 437.426 144.83C440.471 145.415 443.505 146.059 446.522 146.751C445.517 148.715 444.375 150.619 443.11 152.438C442.525 153.28 441.918 154.105 441.282 154.91L443.11 159.684L444.663 163.713Z" fill="white"/>
<path d="M158.702 203.652H136.701V208.421H158.702V203.652Z" fill="#4D61FC"/>
<path d="M158.702 136.002H136.701V208.421H158.702V136.002Z" stroke="#3F424A" stroke-width="3" stroke-miterlimit="10" stroke-linecap="round" stroke-linejoin="round"/>
<path d="M190.176 203.652H168.175V208.421H190.176V203.652Z" fill="#4D61FC"/>
<path d="M190.176 136.002H168.175V208.421H190.176V136.002Z" stroke="#3F424A" stroke-width="3" stroke-miterlimit="10" stroke-linecap="round" stroke-linejoin="round"/>
<path d="M197.953 136.513H123.353V218.218H197.953V136.513Z" stroke="#3F424A" stroke-width="5" stroke-miterlimit="10" stroke-linecap="round" stroke-linejoin="round"/>
<path d="M207.03 136.513H107.663" stroke="#3F424A" stroke-width="5" stroke-miterlimit="10" stroke-linecap="round" stroke-linejoin="round"/>
<path d="M442.432 199.426L433.742 264.63H26.1027L25.9303 263.104L16.1671 176.227L16.0428 175.106L15.7151 172.21C17.1474 172.337 18.5769 172.47 20.0091 172.611C31.1821 173.705 42.3154 175.196 53.3781 177.083C53.7255 177.14 54.0674 177.196 54.4149 177.261C54.4968 177.275 54.5759 177.287 54.6578 177.303C55.0985 177.38 55.5392 177.456 55.9799 177.535C58.4546 177.968 60.9265 178.425 63.3983 178.9C63.4012 178.897 63.4012 178.9 63.4068 178.9C63.6611 178.945 63.9097 178.996 64.1639 179.044C68.6246 179.914 73.074 180.843 77.5064 181.844C77.7239 181.894 77.9471 181.942 78.1646 181.993C78.9302 182.16 79.6958 182.335 80.4585 182.516C80.6195 182.55 80.7749 182.589 80.9331 182.626C84.9729 183.561 88.9985 184.552 93.0156 185.598C95.5807 186.262 98.143 186.951 100.7 187.66C100.954 187.733 101.205 187.801 101.46 187.875C108.579 189.869 115.652 192.027 122.67 194.352C128.139 196.169 133.591 198.079 139.041 199.997C139.532 200.172 140.026 200.344 140.518 200.519H140.521C141.512 200.867 142.501 201.215 143.496 201.568C143.933 201.717 144.374 201.87 144.809 202.025C157.669 206.517 170.593 210.842 183.916 213.729C204.027 218.088 223.271 216.153 243.537 216.065H243.54C243.67 216.062 243.794 216.063 243.921 216.063C251.346 216.04 258.764 215.919 266.185 215.693C267.157 215.662 268.126 215.63 269.098 215.596C274.813 215.407 280.533 215.153 286.246 214.845C314.863 213.294 343.398 210.263 371.697 205.765C371.99 205.72 372.284 205.675 372.578 205.624C373.369 205.497 374.157 205.37 374.945 205.24C375.335 205.178 375.725 205.113 376.115 205.053C376.928 204.921 377.742 204.788 378.553 204.649C378.618 204.638 378.686 204.627 378.751 204.616C379.53 204.486 380.307 204.356 381.087 204.22C381.556 204.141 382.027 204.059 382.494 203.983C383.129 203.873 383.762 203.765 384.398 203.658C397.712 201.372 411.046 199.056 424.535 198.697C430.496 198.542 436.457 198.793 442.375 199.418C442.392 199.423 442.412 199.423 442.432 199.426Z" fill="#4D61FC"/>
<path opacity="0.77" d="M442.432 199.426L433.742 264.63H26.1027L25.9303 263.104L16.1671 176.227L16.0428 175.106L15.7151 172.21C17.1474 172.337 18.5769 172.47 20.0091 172.611C31.1821 173.705 42.3154 175.196 53.3781 177.083C53.7255 177.14 54.0674 177.196 54.4149 177.261C54.4968 177.275 54.5759 177.287 54.6578 177.303C55.0985 177.38 55.5392 177.456 55.9799 177.535C58.4546 177.968 60.9265 178.425 63.3983 178.9C63.4012 178.897 63.4012 178.9 63.4068 178.9C63.6611 178.945 63.9097 178.996 64.1639 179.044C68.6246 179.914 73.074 180.843 77.5064 181.844C77.7239 181.894 77.9471 181.942 78.1646 181.993C78.9302 182.16 79.6958 182.335 80.4585 182.516C80.6195 182.55 80.7749 182.589 80.9331 182.626C84.9729 183.561 88.9985 184.552 93.0156 185.598C95.5807 186.262 98.143 186.951 100.7 187.66C100.954 187.733 101.205 187.801 101.46 187.875C108.579 189.869 115.652 192.027 122.67 194.352C128.139 196.169 133.591 198.079 139.041 199.997C139.532 200.172 140.026 200.344 140.518 200.519H140.521C141.512 200.867 142.501 201.215 143.496 201.568C143.933 201.717 144.374 201.87 144.809 202.025C157.669 206.517 170.593 210.842 183.916 213.729C204.027 218.088 223.271 216.153 243.537 216.065H243.54C243.67 216.062 243.794 216.063 243.921 216.063C251.346 216.04 258.764 215.919 266.185 215.693C267.157 215.662 268.126 215.63 269.098 215.596C274.813 215.407 280.533 215.153 286.246 214.845C314.863 213.294 343.398 210.263 371.697 205.765C371.99 205.72 372.284 205.675 372.578 205.624C373.369 205.497 374.157 205.37 374.945 205.24C375.335 205.178 375.725 205.113 376.115 205.053C376.928 204.921 377.742 204.788 378.553 204.649C378.618 204.638 378.686 204.627 378.751 204.616C379.53 204.486 380.307 204.356 381.087 204.22C381.556 204.141 382.027 204.059 382.494 203.983C383.129 203.873 383.762 203.765 384.398 203.658C397.712 201.372 411.046 199.056 424.535 198.697C430.496 198.542 436.457 198.793 442.375 199.418C442.392 199.423 442.412 199.423 442.432 199.426Z" fill="white"/>
<path d="M156.315 35.3105C156.315 35.3105 148.492 31.2679 142.645 37.8078C142.645 37.8078 147.173 30.8413 140.198 24.8665C140.198 24.8665 145.088 32.2454 141.469 39.6073C141.467 39.6073 149.233 34.1748 156.315 35.3105Z" fill="#3F424A"/>
<path d="M131.413 35.3105C131.413 35.3105 123.591 31.2679 117.743 37.8078C117.743 37.8078 122.271 30.8413 115.296 24.8665C115.296 24.8665 120.186 32.2454 116.568 39.6073C116.565 39.6073 124.328 34.1748 131.413 35.3105Z" fill="#3F424A"/>
<path d="M452 124.767C451.98 129.996 451.054 135.208 449.342 140.16C448.565 142.415 447.621 144.615 446.528 146.737C445.522 148.7 444.381 150.604 443.115 152.424C442.531 153.266 441.923 154.09 441.288 154.896C437.132 160.164 431.9 164.594 425.849 167.679C419.131 171.103 411.701 172.877 404.139 173.693H404.136C403.664 173.747 403.19 173.795 402.718 173.837C400.379 174.055 398.031 174.185 395.695 174.25C393.63 174.306 391.553 174.315 389.483 174.261H389.48C388.802 174.241 388.124 174.219 387.446 174.188C381.915 173.947 376.4 173.272 371.035 172.007C370.236 171.82 369.442 171.617 368.645 171.399C367.371 171.052 366.109 170.67 364.852 170.252C350.831 165.568 338.808 156.376 329.254 145.206C327.514 143.177 325.861 141.079 324.29 138.934C323.909 138.415 323.533 137.895 323.163 137.366C312.855 122.747 306.089 106.04 300.201 89.2397C291.752 65.1481 315.81 74.0356 325.426 59.1987C329.649 52.6899 331.395 44.9946 334.209 37.7937C337.726 28.8045 343.156 20.29 351.08 14.5835C352.3 13.7077 353.583 12.9026 354.916 12.1852C362.253 8.23017 371.098 6.81201 378.979 9.42796C383.629 10.9732 387.604 13.7445 390.946 17.2333C395.195 21.6629 398.427 27.248 400.743 32.9177C404.876 43.0454 406.828 53.9527 411.289 63.9504C412.653 67.0155 414.275 70.0185 416.591 72.4762C419.671 75.7476 423.784 77.8635 427.544 80.3664C442.336 90.2115 452.062 107.269 452 124.767Z" fill="#4D61FC"/>
<path opacity="0.51" d="M452 124.767C451.98 129.996 451.054 135.208 449.342 140.16C448.565 142.415 447.621 144.615 446.528 146.737C445.522 148.7 444.381 150.604 443.115 152.424C442.531 153.266 441.923 154.09 441.288 154.896C437.132 160.164 431.9 164.594 425.849 167.679C419.131 171.103 411.701 172.877 404.139 173.693H404.136C403.664 173.747 403.19 173.795 402.718 173.837C400.379 174.055 398.031 174.185 395.695 174.25C393.63 174.306 391.553 174.315 389.483 174.261H389.48C388.802 174.241 388.124 174.219 387.446 174.188C381.915 173.947 376.4 173.272 371.035 172.007C370.236 171.82 369.442 171.617 368.645 171.399C367.371 171.052 366.109 170.67 364.852 170.252C350.831 165.568 338.808 156.376 329.254 145.206C327.514 143.177 325.861 141.079 324.29 138.934C323.909 138.415 323.533 137.895 323.163 137.366C312.855 122.747 306.089 106.04 300.201 89.2397C291.752 65.1481 315.81 74.0356 325.426 59.1987C329.649 52.6899 331.395 44.9946 334.209 37.7937C337.726 28.8045 343.156 20.29 351.08 14.5835C352.3 13.7077 353.583 12.9026 354.916 12.1852C362.253 8.23017 371.098 6.81201 378.979 9.42796C383.629 10.9732 387.604 13.7445 390.946 17.2333C395.195 21.6629 398.427 27.248 400.743 32.9177C404.876 43.0454 406.828 53.9527 411.289 63.9504C412.653 67.0155 414.275 70.0185 416.591 72.4762C419.671 75.7476 423.784 77.8635 427.544 80.3664C442.336 90.2115 452.062 107.269 452 124.767Z" fill="white"/>
<path d="M118.627 139.779C120.511 136.872 121.294 133.434 122.551 130.216C124.121 126.199 126.548 122.394 130.088 119.846C133.628 117.298 138.388 116.159 142.552 117.541C147.269 119.106 150.428 123.51 152.276 128.035C154.123 132.561 154.996 137.434 156.988 141.901C157.598 143.271 158.324 144.613 159.358 145.709C160.733 147.169 162.573 148.116 164.251 149.231C170.858 153.63 175.203 161.252 175.175 169.069C175.147 176.885 170.579 184.623 163.491 188.239C159.375 190.338 154.657 191.047 150.018 191.174C145.363 191.301 140.645 190.863 136.238 189.389C128.56 186.824 122.22 181.23 117.615 174.696C113.011 168.165 109.988 160.698 107.355 153.192C103.581 142.437 114.327 146.406 118.627 139.779Z" fill="#4D61FC"/>
<path opacity="0.34" d="M118.627 139.779C120.511 136.872 121.294 133.434 122.551 130.216C124.121 126.199 126.548 122.394 130.088 119.846C133.628 117.298 138.388 116.159 142.552 117.541C147.269 119.106 150.428 123.51 152.276 128.035C154.123 132.561 154.996 137.434 156.988 141.901C157.598 143.271 158.324 144.613 159.358 145.709C160.733 147.169 162.573 148.116 164.251 149.231C170.858 153.63 175.203 161.252 175.175 169.069C175.147 176.885 170.579 184.623 163.491 188.239C159.375 190.338 154.657 191.047 150.018 191.174C145.363 191.301 140.645 190.863 136.238 189.389C128.56 186.824 122.22 181.23 117.615 174.696C113.011 168.165 109.988 160.698 107.355 153.192C103.581 142.437 114.327 146.406 118.627 139.779Z" fill="white"/>
<path d="M134.89 163.433L142.701 231.411L145.507 232.51L134.89 163.433Z" fill="#3F424A"/>
<path d="M151.507 173.052L141.662 207.494L141.992 209.65L145.506 232.51L142.97 209.347L151.507 173.052Z" fill="#3F424A"/>
<path d="M137.6 181.052C137.6 181.052 146.219 169.583 145.507 162.317C145.507 162.317 146.083 168.625 137.473 180.23L137.6 181.052Z" fill="#3F424A"/>
<path d="M145.645 197.971C145.645 197.971 156.479 190.109 159.479 183.315C159.479 183.315 157.194 188.685 145.645 197.208V197.971Z" fill="#3F424A"/>
<path d="M361.834 112.142L379.316 264.297L385.593 266.757L361.834 112.142Z" fill="#3F424A"/>
<path d="M399.026 133.669L376.991 210.766L377.731 215.591L385.593 266.757L379.917 214.916L399.026 133.669Z" fill="#3F424A"/>
<path d="M367.894 151.582C367.894 151.582 387.186 125.911 385.593 109.645C385.593 109.645 386.881 123.761 367.612 149.74L367.894 151.582Z" fill="#3F424A"/>
<path d="M385.906 189.448C385.906 189.448 410.156 171.851 416.871 156.641C416.871 156.641 411.755 168.665 385.906 187.742V189.448Z" fill="#3F424A"/>
<path d="M115.525 164.261C113.677 167.139 111.59 169.939 109.248 172.634C106.912 175.323 104.324 177.908 101.459 180.372C100.66 181.067 99.8378 181.745 98.9959 182.414C98.9959 182.414 91.3571 187.327 79.9498 190.338C78.8847 190.621 77.7858 190.886 76.6586 191.126C71.4211 192.251 65.5479 192.903 59.347 192.522C58.6408 192.48 57.9345 192.423 57.2226 192.35C44.1118 191.05 29.7326 184.968 16.9664 169.029H16.9636C16.6557 168.645 16.3506 168.255 16.0427 167.86C15.2827 166.877 14.5313 165.854 13.7827 164.798C9.16943 158.286 4.81611 150.365 0.858294 140.782C0.858294 140.782 -4.00637 115.671 9.47171 103.19C12.7713 100.136 17.167 97.8365 23.0006 96.8478C23.0006 96.8478 52.293 87.0224 51.2506 59.9137C51.2506 59.9137 50.6573 53.9078 52.1461 46.6673C53.9343 37.9691 58.734 27.4912 71.1894 23.5108C73.4127 22.8017 75.8846 22.2988 78.622 22.0502C78.622 22.0502 97.7727 20.2338 110.025 41.7687C110.025 41.7687 127.647 76.4004 128.319 114.072C128.616 131.157 125.432 148.876 115.525 164.261Z" fill="#4D61FC"/>
<path opacity="0.51" d="M115.525 164.261C113.677 167.139 111.59 169.939 109.248 172.634C106.912 175.323 104.324 177.908 101.459 180.372C100.66 181.067 99.8378 181.745 98.9959 182.414C98.9959 182.414 91.3571 187.327 79.9498 190.338C78.8847 190.621 77.7858 190.886 76.6586 191.126C71.4211 192.251 65.5479 192.903 59.347 192.522C58.6408 192.48 57.9345 192.423 57.2226 192.35C44.1118 191.05 29.7326 184.968 16.9664 169.029H16.9636C16.6557 168.645 16.3506 168.255 16.0427 167.86C15.2827 166.877 14.5313 165.854 13.7827 164.798C9.16943 158.286 4.81611 150.365 0.858294 140.782C0.858294 140.782 -4.00637 115.671 9.47171 103.19C12.7713 100.136 17.167 97.8365 23.0006 96.8478C23.0006 96.8478 52.293 87.0224 51.2506 59.9137C51.2506 59.9137 50.6573 53.9078 52.1461 46.6673C53.9343 37.9691 58.734 27.4912 71.1894 23.5108C73.4127 22.8017 75.8846 22.2988 78.622 22.0502C78.622 22.0502 97.7727 20.2338 110.025 41.7687C110.025 41.7687 127.647 76.4004 128.319 114.072C128.616 131.157 125.432 148.876 115.525 164.261Z" fill="white"/>
<path d="M46.7588 158.413C47.6289 159.113 48.5527 159.752 49.5217 160.32C50.1234 160.673 51.341 160.983 51.7845 161.512C51.9709 161.735 52.7676 166.148 52.9823 167.419C53.3524 169.614 53.7225 171.812 54.0954 174.007C55.6011 182.914 57.1209 191.818 58.6577 200.723C61.3923 216.56 64.1552 232.394 67.1412 248.185C68.1525 253.533 69.178 258.881 70.3363 264.2C70.8815 266.709 71.2459 269.557 72.3449 271.913L75.4862 269.396L78.4694 269.076C78.4694 269.076 57.3271 188.564 53.4512 164.585C52.6828 159.839 51.9229 155.093 51.05 150.364L42.1654 102.108C42.1654 102.108 46.53 128.987 51.9653 161.382L46.7588 158.413Z" fill="#3F424A"/>
<path d="M75.6363 256.703L84.665 117.676L86.2102 86.0591L70.8479 255.014L75.6363 256.703Z" fill="#3F424A"/>
<path d="M83.0974 111.93C73.7833 108.532 69.1871 93.1495 69.1871 93.1495C69.1871 93.1495 73.3398 106.549 84.1822 111.93H83.0974Z" fill="#3F424A"/>
<path d="M83.0965 153.96C106.883 138.937 109.784 117.476 109.784 117.476C109.784 117.476 107.894 133.849 81.7462 152.588L83.0965 153.96Z" fill="#3F424A"/>
<path d="M48.6914 141.751C48.6914 141.751 62.4633 112.507 57.1947 93.7205C57.1947 93.7205 61.3644 105.851 48.6914 137.536V141.751Z" fill="#3F424A"/>
<path d="M51.954 155.469C51.954 155.469 62.2709 136.909 59.2453 128.03C59.2453 128.03 61.2398 138.609 51.6235 153.545L51.954 155.469Z" fill="#3F424A"/>
<path d="M197.225 79.6347C207.193 79.6347 215.273 71.7309 215.273 61.9813C215.273 52.2317 207.193 44.3279 197.225 44.3279C187.257 44.3279 179.176 52.2317 179.176 61.9813C179.176 71.7309 187.257 79.6347 197.225 79.6347Z" fill="white"/>
<path d="M248.744 133.974C248.73 134.047 248.713 134.115 248.699 134.186C248.312 136.141 247.701 138.048 246.882 139.872C246.786 140.09 246.679 140.291 246.577 140.48C246.342 140.938 246.148 141.35 246.21 141.842C245.907 141.189 245.778 140.906 245.526 140.389C245.512 140.367 245.501 140.341 245.489 140.322L245.173 140.508L240.964 143.166L226.214 152.48C225.158 153.147 224.412 154.192 224.121 155.39C222.11 163.732 222.234 183.411 222.234 183.411C222.327 183.813 222.364 184.146 222.734 184.352C224.107 185.101 225.404 185.988 226.596 186.988C226.751 187.118 226.904 187.251 227.02 187.414C227.158 187.618 227.231 187.855 227.305 188.084C227.664 189.169 228.07 190.225 228.664 191.206C228.418 191.997 228.087 192.759 227.683 193.485C227.681 193.494 227.675 193.502 227.669 193.511C227.455 193.898 227.203 194.279 226.839 194.522C226.158 194.971 225.127 194.918 224.322 194.776C224.358 195.189 223.949 195.517 223.545 195.63C223.135 195.743 222.697 195.717 222.29 195.844C221.951 195.949 221.638 196.158 221.285 196.189C220.61 196.248 219.985 195.646 219.319 195.774C219.143 195.807 218.98 195.895 218.807 195.935C218.386 196.036 217.985 195.884 217.624 195.646C217.4 195.497 217.191 195.316 216.999 195.132C216.194 194.372 215.496 193.536 214.804 192.675C214.592 189.923 214.437 187.092 214.931 184.369L211.643 151.059C211.363 148.257 212.544 145.503 214.79 143.74C219.615 139.954 227.141 135.152 233.325 131.375H233.328C239.195 127.793 243.851 125.126 243.851 125.126C246.006 123.151 246.823 122.702 248.323 121.722V121.725C248.3 121.973 248.374 122.202 248.467 122.558C248.481 122.6 248.492 122.648 248.504 122.696C248.526 122.787 248.549 122.877 248.563 122.971C248.611 123.151 248.648 123.332 248.684 123.513C248.741 123.787 248.792 124.064 248.84 124.335C248.888 124.612 248.93 124.886 248.967 125.163C249.004 125.44 249.038 125.716 249.069 125.993C249.088 126.14 249.103 126.287 249.117 126.434C249.348 128.945 249.221 131.491 248.744 133.974Z" fill="#F39393"/>
<path opacity="0.15" d="M240.961 143.163L226.212 152.477C225.152 153.144 224.409 154.186 224.118 155.387C222.641 161.54 222.316 173.86 222.251 179.9C222.248 179.871 222.24 179.843 222.234 179.815C222.234 179.815 222.113 160.136 224.118 151.794C224.409 150.599 225.152 149.551 226.212 148.884L239.243 140.655L239.873 141.641L240.766 143.042L240.854 143.175L240.961 143.163Z" fill="black"/>
<path d="M249.164 127.07C249.09 128.18 248.952 129.287 248.743 130.38C248.729 130.454 248.715 130.525 248.701 130.592C248.311 132.55 247.703 134.457 246.884 136.279C246.788 136.497 246.678 136.7 246.579 136.889C246.344 137.347 246.15 137.757 246.212 138.251C245.909 137.598 245.779 137.316 245.528 136.799C245.514 136.779 245.503 136.751 245.491 136.728L245.175 136.915L240.963 139.573L226.214 148.884C225.154 149.551 224.411 150.599 224.12 151.794C222.112 160.136 222.236 179.815 222.236 179.815C222.244 179.843 222.25 179.872 222.253 179.9C222.227 182.05 222.236 183.409 222.236 183.409C222.329 183.81 222.366 184.146 222.733 184.349C224.106 185.098 225.406 185.982 226.595 186.982C226.75 187.112 226.906 187.248 227.021 187.409C227.157 187.612 227.233 187.849 227.307 188.078C227.473 188.587 227.651 189.084 227.855 189.573C228.086 190.129 228.352 190.677 228.666 191.197C228.42 191.988 228.089 192.751 227.688 193.474C227.68 193.483 227.677 193.494 227.671 193.502C227.454 193.887 227.205 194.271 226.841 194.514C226.16 194.963 225.129 194.909 224.324 194.768C224.36 195.18 223.954 195.508 223.544 195.621C223.137 195.734 222.696 195.706 222.29 195.836C221.951 195.94 221.64 196.146 221.284 196.18C220.614 196.237 219.987 195.638 219.321 195.765C219.148 195.796 218.982 195.884 218.812 195.923C218.391 196.025 217.99 195.875 217.626 195.638C217.402 195.485 217.196 195.307 217.001 195.124C216.196 194.361 215.498 193.531 214.806 192.666C214.654 190.703 214.529 188.697 214.654 186.717C214.702 185.923 214.789 185.137 214.93 184.361L214.721 182.259L211.642 151.048C211.56 150.237 211.603 149.427 211.761 148.647C212.137 146.732 213.196 144.98 214.786 143.731C219.614 139.946 227.14 135.143 233.324 131.366H233.327C239.192 127.784 243.85 125.118 243.85 125.118C246.005 123.143 246.822 122.691 248.319 121.711V121.713C248.297 121.965 248.373 122.194 248.466 122.55C248.48 122.592 248.491 122.64 248.503 122.688C248.525 122.778 248.545 122.872 248.565 122.959C248.613 123.143 248.647 123.324 248.686 123.502C248.74 123.776 248.794 124.052 248.842 124.327C248.89 124.601 248.932 124.877 248.969 125.151C249.006 125.431 249.042 125.705 249.071 125.985C249.088 126.129 249.102 126.279 249.119 126.425C249.133 126.643 249.15 126.861 249.164 127.07Z" fill="#F39393"/>
<path d="M259.06 109.28H268.939C269.077 109.28 269.213 109.275 269.349 109.266C272.818 109.032 275.275 105.605 274.741 102.023L272.953 90.0194C272.507 87.0249 269.908 84.8271 266.879 84.8836L259.057 85.0333V109.28H259.06Z" fill="#F39393"/>
<path d="M267.863 108.244L267.719 109.281V109.292L267.035 114.227L266.694 116.693L252.981 114.467L253.735 98.7348L267.863 108.244Z" fill="#F39393"/>
<path opacity="0.15" d="M267.719 109.281V109.292L267.038 114.23C261.645 111.012 260.795 104.574 260.795 104.574C263.36 108.264 267.205 109.266 267.205 109.266L267.719 109.281Z" fill="black"/>
<path d="M314.824 304.88L301.976 307.663L301.933 306.968L301.577 301.143L285.466 249.154C284.958 247.163 284.034 245.329 282.777 243.812L264.078 221.272L274.835 185.79L275.485 183.654C286.763 190.479 300.408 233.157 300.408 233.157C300.408 233.157 302.622 237.623 303.241 242.538C309.244 290.137 313.397 300.561 313.397 300.561L314.824 304.88Z" fill="#F39393"/>
<path opacity="0.15" d="M311.256 292.563L311.242 292.518C310.397 293.501 309.479 294.253 308.538 294.829C306.798 287.623 303.758 272.393 299.995 242.541C299.377 237.626 297.162 233.159 297.162 233.159C297.162 233.159 285.506 196.708 274.835 185.793L275.485 183.657C286.763 190.482 300.408 233.159 300.408 233.159C300.408 233.159 302.622 237.626 303.241 242.541C306.648 269.571 309.459 284.617 311.256 292.563Z" fill="black"/>
<path d="M311.581 304.88L301.933 306.968L301.577 301.143L285.466 249.155C284.958 247.163 284.034 245.33 282.777 243.813L264.078 221.272L274.835 185.79C285.506 196.706 297.162 233.157 297.162 233.157C297.162 233.157 299.377 237.623 299.995 242.539C305.998 290.137 310.151 300.561 310.151 300.561L311.581 304.88Z" fill="#F39393"/>
<path d="M302.552 234.693L282.777 243.81L264.074 221.266L283.314 178.498C286.319 193.502 294.755 210.822 299.074 223.06C300.419 226.868 301.309 230.851 302.552 234.693Z" fill="black"/>
<path d="M280.081 185.346L274.858 202.598C274.858 202.598 271.634 231.103 260.608 254.641C259.812 256.339 259.798 256.573 259.029 258.288C256.374 264.206 250.933 264.814 246.15 264.751C246.15 264.751 212.174 260.678 196.936 263.008C193.902 263.474 191.608 264.195 190.478 265.246C190.113 265.59 189.868 265.963 189.76 266.379L188.334 264.701L186.003 261.96L185.226 261.048L184.057 259.672L183.551 254.11L186.085 250.686L192.379 251.519L196.947 250.663L208.369 248.522C210.617 248.098 214.293 247.361 216.524 246.858C219.993 246.075 228.296 244.841 238.057 247.897C239.463 248.341 240.935 247.454 241.387 245.889C241.856 244.27 242.221 242.62 242.48 240.948C242.738 239.275 242.89 237.583 242.927 235.88C243.077 229.702 243.56 218.808 245.167 209.816C245.938 205.483 245.873 201.036 245.105 196.706C244.235 191.813 244.226 184.575 249.003 177.566L270.157 182.23L271.262 182.473L280.081 185.346Z" fill="#F39393"/>
<path opacity="0.15" d="M188.334 264.704L190.475 265.246C190.111 265.591 189.865 265.966 189.757 266.379L188.334 264.704Z" fill="black"/>
<path opacity="0.15" d="M280.081 185.346L274.857 202.599C274.857 202.599 271.634 231.103 260.608 254.644C259.811 256.339 259.797 256.576 259.029 258.291C256.376 264.212 250.932 264.816 246.147 264.754C246.147 264.754 212.173 260.681 196.935 263.011L196.947 263.003C196.455 261.892 196.124 260.813 195.918 259.788C211.637 257.81 243.991 261.692 243.991 261.692C248.774 261.751 254.218 261.147 256.873 255.225C257.642 253.511 257.656 253.279 258.452 251.578C269.481 228.04 272.702 199.536 272.702 199.536L277.275 184.431L280.081 185.346Z" fill="black"/>
<path d="M277.276 184.434L272.702 199.539C272.702 199.539 269.479 228.043 258.453 251.581C257.656 253.282 257.642 253.513 256.874 255.228C254.221 261.149 248.777 261.754 243.992 261.695C243.992 261.695 210.016 257.618 194.78 259.949C191.746 260.415 189.452 261.133 188.32 262.189C187.955 262.531 187.709 262.904 187.602 263.322L186.175 261.644L184.003 259.087L183.551 254.115L186.085 250.691L192.379 251.525L196.947 250.672L208.369 248.527C210.617 248.104 214.293 247.366 216.527 246.863C219.996 246.081 228.299 244.846 238.057 247.903C239.466 248.347 240.938 247.46 241.39 245.894C241.859 244.279 242.223 242.626 242.483 240.954C242.743 239.281 242.893 237.586 242.93 235.885C243.077 229.704 243.565 218.814 245.173 209.822C245.944 205.486 245.879 201.039 245.108 196.708C244.238 191.818 244.232 184.581 249.003 177.569L270.157 182.233L271.264 182.476L277.276 184.434Z" fill="#F39393"/>
<path d="M280.866 184.846L274.857 204.7C274.857 204.7 272.4 226.47 264.416 247.666L255.331 242.73L254.325 242.185L252.958 241.442L251.952 240.897L250.842 240.292L249.839 239.747L242.621 235.826L243.683 197.638C243.85 192.649 243.997 185.343 246.802 177.566L267.512 181.702L268.625 181.925L270.151 182.23L271.258 182.473L280.866 184.846Z" fill="black"/>
<path d="M270.157 182.233L269.304 185.056L268.846 186.57L267.753 190.183L265.868 196.401L265.843 196.522C265.829 196.652 265.137 202.619 263.354 211.26C261.574 219.936 258.701 231.301 254.328 242.186L255.334 242.731C259.797 231.617 262.716 220.006 264.509 211.226C266.165 203.116 266.863 197.418 266.947 196.748L268.962 190.076L270.049 186.488L271.264 182.476L270.157 182.233Z" fill="#B1B4B9"/>
<path d="M267.623 181.36L267.533 181.657L267.519 181.705L266.77 184.18L265.99 186.762L265.219 189.307L263.335 195.525L263.309 195.646C263.295 195.776 262.603 201.74 260.821 210.384C259.061 218.944 256.236 230.139 251.956 240.897L252.962 241.442C257.335 230.45 260.205 219.023 261.973 210.35C263.629 202.24 264.326 196.545 264.411 195.875L266.425 189.202L267.191 186.683L268.632 181.928L268.64 181.9L268.731 181.603L267.623 181.36Z" fill="#B1B4B9"/>
<path d="M265.055 181.36L264.205 184.182L263.462 186.637L263.369 186.942L262.651 189.31L260.769 195.528L260.744 195.649C260.727 195.779 260.035 201.743 258.255 210.387C256.557 218.645 253.868 229.351 249.842 239.75L250.845 240.295C254.97 229.659 257.699 218.724 259.411 210.35C261.06 202.24 261.761 196.545 261.843 195.875L263.863 189.202L264.572 186.855L264.583 186.824L266.162 181.603L265.055 181.36Z" fill="#B1B4B9"/>
<path d="M185.681 258.7L190.845 265.345C190.845 265.345 179.254 275.161 173.426 283.992C173.254 284.261 173.081 284.526 172.917 284.789C172.917 284.789 170.287 285.733 168.669 284.317C168.669 284.317 163.03 275.842 173.48 258.135C173.48 258.135 181.491 234.784 186.395 244.019C186.534 244.281 186.669 244.569 186.805 244.883C186.805 244.883 192.763 248.773 194.159 251.276L187.466 252.576L185.678 254.965V258.7H185.681Z" fill="black"/>
<path d="M196.947 263.003L196.936 263.011L190.851 265.345L190.475 265.246L188.334 264.703L186 261.96L185.221 261.048L184.054 259.672L184 259.084L186.173 261.641L187.599 263.319C187.707 262.904 187.952 262.528 188.317 262.186C189.45 261.133 191.741 260.412 194.778 259.946C195.145 259.89 195.526 259.836 195.916 259.788C196.125 260.813 196.456 261.892 196.947 263.003Z" fill="#A0A2A5"/>
<path d="M195.918 259.788C195.528 259.836 195.147 259.89 194.78 259.946C191.746 260.412 189.452 261.13 188.319 262.187C187.955 262.528 187.709 262.901 187.601 263.319L186.175 261.641L184.002 259.085L184.056 259.672L185.223 261.048L186.003 261.961L188.336 264.704L183.553 263.48V254.113L186.087 250.689L192.381 251.522L196.949 250.669C196.862 250.822 194.873 254.658 195.918 259.788Z" fill="#B1B4B9"/>
<path d="M185.681 258.7L190.845 265.345C190.845 265.345 179.254 275.162 173.426 283.992C172.771 284.086 170.677 284.255 169.471 282.891C169.471 282.891 164.827 273.678 177.189 257.598C177.189 257.598 182.07 247.437 186.395 244.016C186.534 244.279 186.67 244.567 186.805 244.88C186.805 244.88 192.763 248.77 194.159 251.273L187.466 252.573L185.678 254.963V258.7H185.681Z" fill="#3F424A"/>
<path d="M335.415 317.364C335.161 318.333 334.607 319.133 333.85 319.802H333.844C333.672 319.96 333.488 320.107 333.293 320.243C332.291 320.966 331.025 321.503 329.669 321.901C329.482 321.955 329.296 322.006 329.107 322.059C327.632 322.441 326.081 322.672 324.64 322.808C324.434 322.828 324.231 322.85 324.03 322.862C322.392 322.997 320.954 323.008 320.019 322.997C319.759 322.997 319.536 322.992 319.358 322.98C319.07 322.975 318.911 322.963 318.911 322.963L315.872 322.607L315.191 322.528L304.23 321.237C295.204 319.743 296.71 315.274 296.71 315.274L298.625 314.44H304.024L316.801 316.025L318.683 316.104L318.906 316.115L321.931 316.245H321.945L327.056 316.466L335.415 317.364Z" fill="#B1B4B9"/>
<path d="M298.184 312.364C298.184 312.364 298.47 314.203 296.707 315.276C296.707 315.276 323.748 321.418 335.415 317.364L335.319 316.031L323.426 313.968L316.064 311.285H308.798L301.535 310.867L298.184 312.364Z" fill="black"/>
<path d="M314.824 304.88L301.976 307.663L301.933 306.968L311.581 304.88L310.148 300.561C310.148 300.561 309.572 299.112 308.538 294.829C309.479 294.256 310.397 293.504 311.242 292.518L311.256 292.563L314.824 304.88Z" fill="#A0A2A5"/>
<path d="M301.933 306.968L301.976 307.663L300.199 296.451C300.199 296.451 304.535 297.27 308.538 294.829C309.572 299.112 310.148 300.561 310.148 300.561L311.58 304.88L301.933 306.968Z" fill="#B1B4B9"/>
<path d="M301.165 302.722C301.165 302.722 301.47 304.321 302.704 303.587C302.704 303.587 307.34 309.375 315.397 302.722L328.344 312.44C328.344 312.44 336.381 311.296 335.319 316.028H320.971L315.397 313.355L310.01 313.661L298.184 312.364C298.184 312.364 300.684 307.731 301.165 302.722Z" fill="#3F424A"/>
<path d="M329.55 321.901C329.358 321.955 329.169 322.006 328.977 322.059C329.968 319.763 329.672 316.915 329.672 316.884L330.132 316.822C330.149 316.946 330.418 319.562 329.55 321.901Z" fill="black"/>
<path d="M333.819 319.802H333.813C333.635 319.96 333.449 320.107 333.251 320.243C333.63 318.779 333.378 317.342 333.373 317.327L333.83 317.229C333.841 317.285 334.042 318.455 333.819 319.802Z" fill="black"/>
<path d="M324.42 322.808C324.211 322.828 324.002 322.85 323.796 322.862C325.683 320.265 325.578 316.5 325.576 316.463L326.042 316.443C326.045 316.61 326.143 320.113 324.42 322.808Z" fill="black"/>
<path d="M321.666 316.248C321.666 316.452 321.68 320.683 319.7 322.997C319.434 322.997 319.205 322.992 319.024 322.98C321.214 320.952 321.2 316.305 321.2 316.251L321.652 316.245H321.666V316.248Z" fill="black"/>
<path d="M318.801 316.164C318.773 316.341 318.157 320.217 315.468 322.607L314.773 322.528C317.544 320.393 318.276 316.483 318.335 316.104C318.341 316.084 318.341 316.073 318.341 316.073L318.564 316.115L318.801 316.164Z" fill="black"/>
<path d="M259.919 94.5423C259.501 94.4745 259.06 94.4519 258.667 94.6157C257.854 94.9547 257.506 95.9689 257.475 96.8786C257.422 98.4464 258.057 100.023 259.167 101.082C260.278 102.139 261.843 102.659 263.337 102.461C263.459 102.444 262.56 97.5876 262.461 97.1469C262.111 95.5791 261.569 94.8135 259.919 94.5423Z" fill="#F39393"/>
<path d="M267.142 93.4352C268.151 92.5961 269.645 92.4944 270.64 91.6413C271.148 91.2034 271.482 90.6017 271.733 89.9858C272.843 87.2541 272.42 83.9771 270.648 81.6012C269.264 79.7452 267.157 78.4824 264.911 77.8073C264.009 77.5361 263.063 77.3524 262.125 77.4541C261.281 77.5474 260.475 77.8666 259.73 78.2621C257.763 79.2989 256.128 80.847 254.633 82.4713C254.187 82.9544 253.721 83.4686 253.088 83.6691C252.585 83.8302 252.04 83.7708 251.515 83.8019C249.582 83.9177 247.819 85.4093 247.43 87.2654C247.237 88.1694 247.334 89.1525 246.887 89.9661C246.308 91.0226 244.949 91.5255 244.432 92.6131C243.924 93.6809 244.387 94.9296 244.873 96.0059C246.834 100.337 249.215 104.484 251.975 108.374C252.181 108.665 252.396 108.959 252.698 109.151C253.3 109.532 254.091 109.416 254.775 109.213C257.266 108.473 259.427 106.718 260.634 104.461C260.823 104.105 260.995 103.718 260.97 103.317C260.947 102.955 260.764 102.619 260.563 102.314C259.803 101.156 258.718 100.21 258.071 98.9891C257.424 97.7659 257.368 96.0511 258.481 95.2093C258.924 94.8731 259.498 94.7262 260.06 94.7121C261.36 94.6753 262.656 95.3505 263.354 96.4212C263.993 97.4043 265.055 98.523 265.71 96.9947C266.25 95.7319 265.925 94.4493 267.142 93.4352Z" fill="#21252B"/>
<path opacity="0.15" d="M227.296 192.318C227.078 192.7 226.829 193.084 226.462 193.33C225.781 193.776 224.753 193.725 223.948 193.584C223.985 193.994 223.575 194.321 223.171 194.437C222.761 194.55 222.324 194.525 221.92 194.652C221.581 194.756 221.267 194.965 220.914 194.999C220.239 195.059 219.614 194.457 218.948 194.584C218.77 194.615 218.609 194.703 218.436 194.742C218.018 194.841 217.617 194.691 217.253 194.454C217.239 194.417 217.23 194.381 217.224 194.344C217.117 193.728 217.575 193.948 217.84 193.468C217.984 193.203 218.004 192.895 218.018 192.592C218.041 191.906 218.052 191.222 218.032 190.533C218.024 190.233 218.013 189.923 218.117 189.635C218.219 189.352 218.462 189.092 218.77 189.064C218.9 189.05 219.041 189.078 219.148 189.005C219.227 188.951 219.264 188.858 219.301 188.773C219.459 188.417 219.71 188.087 220.064 187.917C220.422 187.748 220.891 187.781 221.162 188.067C221.298 188.208 221.377 188.403 221.535 188.519C221.852 188.75 222.352 188.587 222.657 188.832C222.73 188.897 222.792 188.982 222.886 189.024C223.129 189.137 223.369 188.889 223.612 188.764C223.908 188.615 224.287 188.677 224.581 188.841C224.88 189.01 225.103 189.265 225.327 189.516C225.49 189.7 225.651 189.886 225.821 190.072C226.301 190.615 226.79 191.171 227.106 191.821C227.18 191.988 227.245 192.152 227.296 192.318Z" fill="black"/>
<path d="M227.668 193.047C227.448 193.429 227.202 193.813 226.835 194.059C226.154 194.508 225.126 194.454 224.318 194.313C224.355 194.725 223.945 195.053 223.541 195.166C223.131 195.279 222.696 195.254 222.29 195.381C221.948 195.485 221.637 195.694 221.281 195.725C220.606 195.785 219.982 195.183 219.321 195.31C219.143 195.344 218.979 195.431 218.806 195.471C218.385 195.57 217.987 195.42 217.623 195.183C217.609 195.146 217.6 195.109 217.597 195.073C217.49 194.457 217.945 194.677 218.21 194.2C218.354 193.934 218.374 193.623 218.385 193.327C218.411 192.638 218.419 191.954 218.4 191.267C218.391 190.968 218.38 190.654 218.484 190.372C218.586 190.087 218.826 189.829 219.137 189.801C219.267 189.787 219.405 189.815 219.513 189.742C219.561 189.708 219.592 189.663 219.617 189.612C219.637 189.578 219.651 189.547 219.665 189.51C219.685 189.474 219.702 189.434 219.716 189.397C219.88 189.086 220.112 188.804 220.431 188.654C220.79 188.488 221.258 188.516 221.53 188.804C221.662 188.945 221.742 189.143 221.903 189.256C221.922 189.267 221.936 189.281 221.953 189.29C222.016 189.327 222.081 189.352 222.151 189.366C222.445 189.434 222.787 189.383 223.021 189.57C223.095 189.635 223.16 189.722 223.253 189.762C223.369 189.815 223.479 189.787 223.592 189.733C223.648 189.705 223.705 189.671 223.759 189.635C223.829 189.587 223.903 189.538 223.979 189.505C224.276 189.352 224.654 189.417 224.948 189.581C225.245 189.748 225.468 190.002 225.694 190.253C225.858 190.434 226.021 190.62 226.188 190.81C226.668 191.352 227.157 191.906 227.473 192.558C227.55 192.717 227.618 192.88 227.668 193.047Z" fill="#F39393"/>
<g opacity="0.15">
<path opacity="0.15" d="M220.332 192.443L220.148 192.477L219.617 189.612C219.637 189.578 219.651 189.547 219.665 189.511C219.685 189.474 219.702 189.434 219.716 189.398L219.764 189.389L220.332 192.443Z" fill="black"/>
</g>
<g opacity="0.15">
<path opacity="0.15" d="M222.51 191.813L222.326 191.838L221.953 189.287C222.016 189.324 222.081 189.35 222.151 189.364L222.51 191.813Z" fill="black"/>
</g>
<g opacity="0.15">
<path opacity="0.15" d="M224.109 190.974L223.926 191.008L223.677 189.66C223.734 189.632 223.79 189.598 223.844 189.561L224.109 190.974Z" fill="black"/>
</g>
<path d="M248.743 133.974C248.729 134.047 248.715 134.115 248.701 134.185C248.311 136.143 247.704 138.05 246.885 139.872C246.789 140.09 246.678 140.293 246.58 140.48C246.345 140.94 246.15 141.35 246.212 141.844C245.91 141.191 245.78 140.906 245.529 140.392C245.515 140.367 245.503 140.344 245.492 140.321L245.176 140.508L240.963 143.163L240.859 143.177L240.771 143.045L239.879 141.644L239.249 140.658L240.963 139.576L245.176 136.917L245.492 136.731C245.503 136.751 245.515 136.779 245.529 136.801C245.78 137.318 245.91 137.601 246.212 138.254C246.15 137.759 246.345 137.349 246.58 136.892C246.681 136.703 246.789 136.499 246.885 136.282C247.704 134.46 248.311 132.553 248.701 130.595C248.715 130.527 248.729 130.456 248.743 130.383C248.953 129.29 249.094 128.182 249.164 127.072C249.32 129.377 249.179 131.702 248.743 133.974Z" fill="#4D61FC"/>
<path opacity="0.15" d="M248.743 133.974C248.729 134.047 248.715 134.115 248.701 134.185C248.311 136.143 247.704 138.05 246.885 139.872C246.789 140.09 246.678 140.293 246.58 140.48C246.345 140.94 246.15 141.35 246.212 141.844C245.91 141.191 245.78 140.906 245.529 140.392C245.515 140.367 245.503 140.344 245.492 140.321L245.176 140.508L240.963 143.163L240.859 143.177L240.771 143.045L239.879 141.644L239.249 140.658L240.963 139.576L245.176 136.917L245.492 136.731C245.503 136.751 245.515 136.779 245.529 136.801C245.78 137.318 245.91 137.601 246.212 138.254C246.15 137.759 246.345 137.349 246.58 136.892C246.681 136.703 246.789 136.499 246.885 136.282C247.704 134.46 248.311 132.553 248.701 130.595C248.715 130.527 248.729 130.456 248.743 130.383C248.953 129.29 249.094 128.182 249.164 127.072C249.32 129.377 249.179 131.702 248.743 133.974Z" fill="black"/>
<path d="M250.771 117.586V117.591L248.751 142.367L247.121 142.536L246.545 142.593L246.455 142.601C246.404 142.499 246.359 142.389 246.319 142.285C246.316 142.273 246.308 142.257 246.302 142.237C246.172 141.934 245.537 140.547 245.522 140.42C245.522 140.409 245.52 140.4 245.522 140.392C245.774 140.906 245.904 141.191 246.206 141.844C246.144 141.35 246.339 140.94 246.573 140.48C246.675 140.293 246.782 140.093 246.878 139.872C247.698 138.05 248.305 136.143 248.695 134.185C248.709 134.115 248.723 134.047 248.737 133.974C249.172 131.702 249.314 129.375 249.158 127.069C249.085 128.18 248.946 129.287 248.737 130.38C248.723 130.454 248.709 130.524 248.695 130.592C248.305 132.55 247.698 134.457 246.878 136.279C246.782 136.496 246.672 136.7 246.573 136.889C246.339 137.347 246.144 137.756 246.206 138.251C245.904 137.598 245.774 137.316 245.522 136.799C245.508 136.779 245.497 136.751 245.486 136.728L245.169 136.914L240.957 139.573L239.242 140.655L233.318 131.372H233.321L250.689 117.648L250.771 117.586Z" fill="#4D61FC"/>
<path d="M249.144 121.168C249.144 121.168 249.192 121.781 249.192 122.829C249.192 123.649 249.161 124.725 249.065 125.99C249.085 126.137 249.099 126.284 249.113 126.431C249.345 128.948 249.218 131.491 248.74 133.974C248.353 136.002 247.729 137.983 246.878 139.873C246.782 140.09 246.675 140.291 246.573 140.48C246.339 140.938 246.144 141.35 246.206 141.842C246.542 142.573 246.895 143.367 247.251 144.22C247.384 144.539 247.523 144.864 247.661 145.2C250.037 151.003 252.52 158.989 252.401 166.778L248.04 177.569C248.04 177.569 248.311 177.665 248.816 177.818C250.523 178.324 254.899 179.468 260.571 179.787C263.263 179.937 266.25 179.903 269.38 179.527L269.411 179.524C270.402 179.403 271.399 179.25 272.397 179.061C272.691 178.999 272.993 178.939 273.289 178.88C273.352 178.866 273.411 178.855 273.476 178.841C273.569 178.818 273.665 178.801 273.758 178.776C274.812 178.544 275.863 178.261 276.9 177.934C279.157 177.216 281.363 176.27 283.449 175.035C283.458 175.032 283.461 175.027 283.461 175.027C283.461 175.027 283.367 168.072 282.344 158.84C282.27 158.173 282.191 157.492 282.109 156.806C281.677 153.274 281.112 149.472 280.366 145.647C278.711 137.098 276.162 128.411 272.258 122.222C270.772 119.866 269.094 117.871 267.187 116.385L266.755 116.247L254.896 112.456V112.453L254.856 112.439L254.848 112.436L253.325 111.978C253.252 111.962 253.175 111.939 253.102 111.916C253.065 112.029 253.029 112.148 252.983 112.261C252.972 112.315 252.952 112.371 252.927 112.425C252.913 112.473 252.896 112.521 252.879 112.566C252.331 114.1 250.831 118.024 248.839 120.674C248.825 120.696 248.805 120.713 248.791 120.733C248.766 120.773 248.732 120.809 248.706 120.855C248.698 120.863 248.695 120.872 248.687 120.88L249.144 121.168Z" fill="#F39393"/>
<path d="M286.517 175.453C286.517 175.453 286.489 176.572 286.452 178.016C286.452 178.134 286.449 178.256 286.444 178.38C286.401 179.954 286.353 181.81 286.325 183.033C286.317 183.163 286.314 183.287 286.314 183.4C286.271 184.541 285.802 184.248 284.732 184.394C283.622 184.55 282.503 184.688 281.386 184.81C279.208 185.053 277.025 185.248 274.841 185.44C272.476 185.652 270.112 185.861 267.747 186.07C267.227 186.115 266.705 186.16 266.185 186.211C262.852 186.508 259.518 186.804 256.185 187.101C252.682 187.412 249.136 187.725 245.63 187.301C245.051 187.231 243.981 187.282 243.707 186.742C243.554 186.443 243.738 185.637 243.755 185.307C243.783 184.524 243.811 183.742 243.845 182.959L243.859 182.595L244.071 177.27L244.085 176.903L244.269 172.253L244.283 171.888L244.492 166.62L244.506 166.247L244.692 161.458L244.707 161.091L244.918 155.724L244.933 155.356L245.15 149.913L245.164 149.548L245.356 144.729L245.37 144.359L245.523 140.452C245.368 139.997 245.274 139.522 245.291 138.929V138.909C245.294 138.793 245.3 138.672 245.305 138.556C245.368 136.994 245.447 135.434 245.568 133.878C245.582 133.759 245.591 133.635 245.599 133.513C245.746 131.784 245.961 130.056 246.28 128.349C246.303 128.231 246.322 128.109 246.354 127.993C246.605 126.705 246.924 125.44 247.323 124.188C247.419 123.894 247.517 123.603 247.619 123.312C247.662 123.197 247.701 123.081 247.749 122.959C248.243 121.62 248.851 120.332 249.653 119.14C249.732 119.027 249.811 118.914 249.888 118.801C249.95 118.716 250.006 118.64 250.071 118.555C250.215 118.36 250.371 118.171 250.464 117.953C250.605 117.637 250.763 117.479 250.961 117.224C251.198 116.911 251.337 116.453 251.495 116.1C251.727 115.589 251.953 115.075 252.162 114.549C252.213 114.433 252.255 114.312 252.295 114.196C252.348 114.066 252.396 113.931 252.447 113.798C252.487 113.682 252.529 113.566 252.574 113.447C252.682 113.151 252.783 112.854 252.885 112.555C252.902 112.51 252.916 112.459 252.933 112.413C252.958 112.357 252.975 112.303 252.987 112.247C253.035 112.134 253.069 112.015 253.105 111.902C253.371 112.399 254.41 112.433 254.86 112.428C254.987 112.425 255.066 112.422 255.066 112.422C259.462 112.043 263.38 113.428 266.727 115.835C266.756 115.852 266.778 115.868 266.809 115.891C266.996 116.029 267.179 116.171 267.38 116.315C268.79 117.377 270.25 118.634 271.68 120.013C272.324 120.637 272.968 121.278 273.589 121.945C273.725 122.092 273.863 122.242 274.005 122.386C275.392 123.897 276.705 125.502 277.869 127.135C277.965 127.273 278.064 127.414 278.16 127.555C278.248 127.68 278.333 127.801 278.412 127.926C279.544 129.601 280.499 131.29 281.18 132.926C281.237 133.056 281.293 133.186 281.341 133.318C281.474 133.66 281.598 134.002 281.708 134.338C281.788 134.581 281.861 134.821 281.926 135.059C281.988 135.273 282.042 135.488 282.098 135.7C282.364 136.74 282.605 137.785 282.816 138.839C282.825 138.867 282.831 138.895 282.833 138.926C282.856 139.022 282.873 139.121 282.896 139.22C282.904 139.248 282.907 139.279 282.91 139.307C283.232 140.889 283.494 142.48 283.729 144.079C283.743 144.206 283.76 144.333 283.78 144.46C283.898 145.294 284.006 146.124 284.11 146.952C284.172 147.427 284.226 147.904 284.283 148.376C284.345 148.915 284.404 149.455 284.461 149.994C284.478 150.119 284.492 150.24 284.503 150.367C284.681 152.014 284.845 153.664 285.009 155.303C285.023 155.43 285.034 155.557 285.048 155.681C285.088 156.079 285.127 156.478 285.17 156.873C285.184 157.003 285.226 157.283 285.243 157.413C285.28 157.749 285.305 158.043 285.331 158.342C285.356 158.639 285.384 158.938 285.421 159.272C285.472 159.794 285.528 160.311 285.582 160.834C285.593 160.972 285.608 161.105 285.624 161.246C285.636 161.374 285.65 161.498 285.661 161.625C285.853 163.447 286.026 165.281 286.173 167.108C286.184 167.233 286.198 167.36 286.204 167.481C286.331 169.106 286.43 170.727 286.489 172.346C286.492 172.47 286.5 172.592 286.503 172.716C286.514 173.029 286.52 173.346 286.531 173.659C286.54 173.897 286.509 175.244 286.517 175.453Z" fill="#4D61FC"/>
<g opacity="0.31">
<g opacity="0.31">
<path opacity="0.31" d="M267.744 186.072C267.225 186.117 266.702 186.163 266.182 186.214L243.839 182.959L243.853 182.595L267.744 186.072Z" fill="white"/>
</g>
<g opacity="0.31">
<path opacity="0.31" d="M286.294 183.033C286.286 183.163 286.283 183.287 286.283 183.4L244.068 177.273L244.082 176.905L286.294 183.033Z" fill="white"/>
</g>
<g opacity="0.31">
<path opacity="0.31" d="M286.444 178.016C286.444 178.137 286.435 178.256 286.432 178.38L244.266 172.255L244.281 171.891L286.444 178.016Z" fill="white"/>
</g>
<g opacity="0.31">
<path opacity="0.31" d="M286.506 172.722L244.486 166.622L244.5 166.252L286.486 172.352C286.495 172.473 286.503 172.597 286.506 172.722Z" fill="white"/>
</g>
<g opacity="0.31">
<path opacity="0.31" d="M286.158 167.487L244.69 161.464L244.704 161.097L286.122 167.111C286.136 167.235 286.15 167.363 286.158 167.487Z" fill="white"/>
</g>
<g opacity="0.31">
<path opacity="0.31" d="M285.528 161.628L244.919 155.729L244.933 155.362L285.483 161.249C285.497 161.376 285.514 161.501 285.528 161.628Z" fill="white"/>
</g>
<g opacity="0.31">
<path opacity="0.31" d="M284.814 155.681L245.147 149.918L245.161 149.553L284.771 155.305C284.788 155.435 284.802 155.557 284.814 155.681Z" fill="white"/>
</g>
<g opacity="0.31">
<path opacity="0.31" d="M284.184 150.37L245.351 144.734L245.365 144.367L284.133 149.997C284.155 150.119 284.17 150.243 284.184 150.37Z" fill="white"/>
</g>
<g opacity="0.31">
<path opacity="0.31" d="M283.347 144.46L245.292 138.935V138.918C245.294 138.802 245.3 138.68 245.306 138.565L283.288 144.082C283.302 144.206 283.325 144.333 283.347 144.46Z" fill="white"/>
</g>
<g opacity="0.31">
<path opacity="0.31" d="M283.441 139.013L283.37 139.375L282.912 139.31L282.319 139.222L245.569 133.886C245.58 133.765 245.589 133.643 245.6 133.522L282.226 138.841L282.836 138.929L283.441 139.013Z" fill="white"/>
</g>
<g opacity="0.31">
<path opacity="0.31" d="M280.225 133.282L250.331 128.943L246.277 128.352C246.3 128.231 246.322 128.112 246.35 127.996L250.226 128.556L279.979 132.878C280.058 133.013 280.143 133.149 280.225 133.282Z" fill="white"/>
</g>
<g opacity="0.31">
<path opacity="0.31" d="M276.824 127.558L247.619 123.318C247.661 123.202 247.701 123.086 247.746 122.968L276.485 127.14C276.601 127.279 276.711 127.42 276.824 127.558Z" fill="white"/>
</g>
<g opacity="0.31">
<path opacity="0.31" d="M272.002 122.394L249.651 119.151C249.73 119.038 249.806 118.925 249.885 118.812L271.522 121.954C271.683 122.098 271.844 122.247 272.002 122.394Z" fill="white"/>
</g>
<g opacity="0.31">
<path opacity="0.31" d="M264.31 116.318L252.162 114.555C252.21 114.439 252.255 114.318 252.295 114.202L263.555 115.837L263.558 115.84C263.592 115.857 263.617 115.877 263.651 115.9C263.877 116.035 264.086 116.174 264.31 116.318Z" fill="white"/>
</g>
</g>
<path d="M246.438 186.705L243.78 186.861C243.955 186.849 244.376 186.821 244.901 186.787C245.367 186.762 245.91 186.731 246.438 186.705Z" fill="#4D61FC"/>
<path opacity="0.15" d="M285.585 160.837C283.913 159.792 281.522 158.289 281.287 158.116C280.154 157.294 279.075 156.402 278.089 155.41C277.657 154.972 277.245 154.523 276.835 154.065C274.284 151.269 271.736 148.472 269.185 145.672C268.784 145.234 268.385 144.794 268.015 144.325C267.674 143.887 267.442 143.418 266.998 143.079C266.089 142.395 265.334 141.542 264.583 140.7C264.012 140.059 263.45 139.214 262.733 138.737C260.772 137.44 258.893 135.966 257.47 134.095C256.026 132.194 255.083 129.886 255.043 127.519C255.018 125.733 255.65 122.462 257.396 121.431C259.139 120.405 260.925 122.677 261.927 124.027C264.786 127.886 267.329 131.968 269.527 136.225C270.027 137.194 270.513 138.22 270.812 139.265C272.456 139.791 273.891 140.83 275.284 141.85C276.694 142.881 278.106 143.915 279.516 144.943C279.892 145.22 280.273 145.497 280.578 145.847C280.697 145.977 282.771 147.339 284.291 148.37C284.353 148.91 284.413 149.446 284.469 149.986C284.483 150.11 284.5 150.235 284.509 150.362C284.687 152.009 284.85 153.656 285.014 155.3C285.028 155.427 285.04 155.551 285.051 155.676C285.091 156.077 285.133 156.472 285.172 156.871C285.187 156.998 285.232 157.277 285.246 157.41C285.28 157.746 285.305 158.04 285.331 158.34C285.356 158.639 285.387 158.936 285.421 159.272C285.472 159.797 285.528 160.317 285.585 160.837Z" fill="black"/>
<path d="M320.202 125.917C319.951 126.917 319.474 127.88 318.807 128.733C318.733 128.824 318.66 128.917 318.584 129.007C318.533 129.067 318.482 129.123 318.431 129.18C318.335 129.29 318.236 129.397 318.143 129.507C317.821 129.866 314.083 131.649 313.705 132.166C313.694 132.183 313.682 132.197 313.679 132.211C311.377 138.864 300.854 152.531 296.032 157.992C294.478 159.74 291.707 160.3 289.401 159.337C288.421 158.916 287.492 158.413 286.596 157.873C285.616 157.277 284.667 156.641 283.746 155.978C282.585 155.141 281.466 154.257 280.387 153.339C280.186 153.164 279.98 152.989 279.776 152.816C279.61 152.67 279.44 152.52 279.276 152.373C277.579 150.861 275.963 149.277 274.403 147.683C274.073 147.344 273.742 147.011 273.42 146.672C273.285 146.531 273.143 146.387 273.005 146.245C272.745 145.974 272.491 145.703 272.231 145.435C271.177 144.336 270.143 143.223 269.123 142.104C269.12 142.101 269.12 142.098 269.12 142.098C268.626 141.559 268.14 141.014 267.654 140.465C267.513 140.307 267.372 140.149 267.233 139.991C267.151 139.895 267.064 139.802 266.982 139.706C266.94 139.66 266.9 139.61 266.855 139.561H266.852C266.838 139.545 266.821 139.528 266.804 139.508C266.677 139.364 266.547 139.214 266.423 139.067C266.383 139.028 266.346 138.982 266.31 138.943C265.569 138.095 264.908 137.191 264.129 136.375C263.115 135.31 261.764 134.66 260.462 133.914C260.191 133.762 259.922 133.604 259.657 133.434C259.654 133.431 259.648 133.431 259.645 133.428C259.501 133.338 259.36 133.245 259.219 133.149C259.21 133.146 259.205 133.137 259.196 133.135C259.063 133.039 258.931 132.945 258.795 132.849C258.66 132.748 258.518 132.646 258.38 132.539C258.244 132.434 258.109 132.329 257.973 132.228C257.32 131.719 256.671 131.219 256.089 130.651C256.001 130.567 255.919 130.479 255.832 130.392C255.738 130.191 255.654 129.982 255.575 129.77C255.563 129.745 255.558 129.722 255.546 129.699C255.524 129.632 255.498 129.567 255.481 129.499C255.459 129.437 255.439 129.372 255.419 129.312C255.408 129.281 255.402 129.25 255.394 129.222C255.368 129.132 255.343 129.036 255.318 128.942C255.303 128.88 255.286 128.815 255.27 128.753C255.253 128.691 255.238 128.626 255.227 128.558C255.196 128.414 255.171 128.264 255.145 128.12V128.106C255.12 127.954 255.103 127.807 255.083 127.654C255.072 127.552 255.066 127.445 255.058 127.343C255.049 127.253 255.046 127.16 255.044 127.069V127.058C255.012 126.177 255.111 125.295 255.346 124.442C255.36 124.397 255.374 124.346 255.388 124.298C255.411 124.227 255.431 124.157 255.453 124.086C255.49 123.973 255.529 123.863 255.569 123.756C255.583 123.716 255.597 123.674 255.611 123.637C255.64 123.561 255.673 123.482 255.705 123.408C255.713 123.391 255.719 123.377 255.727 123.36C255.775 123.241 255.829 123.123 255.885 123.007C256.029 122.708 256.19 122.411 256.377 122.126C256.425 122.049 256.473 121.979 256.521 121.902C256.733 121.592 256.967 121.292 257.224 121.007C257.431 120.778 257.651 120.552 257.885 120.343C258.007 120.233 258.134 120.128 258.267 120.027C258.369 119.95 258.473 119.871 258.578 119.801C258.578 119.801 258.58 119.801 258.58 119.798C258.736 119.696 258.894 119.594 259.063 119.504C259.08 119.493 259.095 119.487 259.114 119.476C259.894 119.066 260.775 118.823 261.66 118.634C263.445 118.241 265.304 118.01 267.118 118.247C268.112 118.377 269.058 118.659 269.948 119.06C270.547 119.329 271.123 119.654 271.674 120.018C271.892 120.162 272.107 120.315 272.316 120.473C272.448 120.572 272.578 120.674 272.708 120.775C272.77 120.823 272.835 120.877 272.895 120.931C273.725 121.614 274.491 122.394 275.197 123.222C275.369 123.425 275.539 123.634 275.708 123.846C275.875 124.055 276.036 124.267 276.194 124.482C276.779 125.261 277.313 126.069 277.79 126.869C277.864 126.982 277.926 127.095 277.991 127.208C278.144 127.462 278.288 127.716 278.426 127.97C278.988 128.982 279.468 129.962 279.867 130.855C279.946 131.024 280.022 131.197 280.104 131.366C280.183 131.538 280.262 131.708 280.35 131.875C280.432 132.044 280.517 132.211 280.601 132.377C280.706 132.589 280.819 132.801 280.932 133.007C280.98 133.098 281.028 133.191 281.079 133.281C281.226 133.539 281.37 133.798 281.525 134.058C281.579 134.154 281.638 134.248 281.695 134.341C281.695 134.344 281.695 134.344 281.695 134.344C281.762 134.457 281.83 134.573 281.904 134.686C282.127 135.053 282.361 135.414 282.604 135.776C282.698 135.92 282.797 136.061 282.893 136.205C283.006 136.372 283.124 136.536 283.237 136.703C283.613 137.234 284.006 137.756 284.41 138.276L288.034 142.748L292.848 148.689C293.046 148.94 293.472 148.96 293.701 148.729C303.17 139.409 306.323 134.219 306.888 132.459C306.996 132.115 307.055 131.745 307.007 131.394C306.919 130.793 306.137 130.185 306.024 129.592C305.673 127.725 304.95 125.849 305.284 123.979C305.315 123.792 305.365 123.606 305.439 123.422C305.45 123.391 305.462 123.36 305.476 123.326C305.512 123.239 305.555 123.151 305.603 123.066C305.62 123.024 305.645 122.984 305.671 122.948C305.736 122.843 305.806 122.744 305.888 122.648C305.936 122.592 305.981 122.538 306.035 122.49C306.075 122.45 306.114 122.414 306.162 122.374C306.202 122.343 306.241 122.312 306.284 122.278C306.56 122.083 306.902 121.942 307.261 121.948C307.309 121.948 307.357 121.95 307.405 121.959C307.806 122.013 308.174 122.318 308.154 122.665C308.145 122.953 307.891 123.193 307.724 123.45C307.414 123.925 307.402 124.541 307.702 125.024C307.744 125.097 307.803 125.177 307.894 125.213C307.956 125.233 308.024 125.242 308.094 125.23C308.541 125.191 308.826 124.761 308.84 124.366C308.854 123.97 308.688 123.589 308.64 123.202C308.493 122.069 309.448 120.911 310.739 120.657C311.295 120.546 311.951 120.617 312.295 121.01C312.476 121.219 312.558 121.49 312.75 121.674C312.781 121.702 312.824 121.733 312.863 121.758C312.903 121.778 312.937 121.798 312.976 121.812C313.357 121.956 313.824 121.798 314.242 121.739C315.185 121.611 316.216 122.174 316.352 122.984C316.389 123.227 316.363 123.493 316.456 123.71C316.479 123.778 316.513 123.838 316.569 123.897C316.601 123.928 316.643 123.959 316.682 123.987C316.982 124.185 317.462 124.157 317.855 124.216C318.431 124.298 318.926 124.643 319.191 125.086C319.267 125.225 319.363 125.346 319.476 125.456C319.479 125.459 319.488 125.468 319.49 125.468V125.47C319.553 125.53 319.618 125.586 319.688 125.637C319.742 125.677 319.796 125.713 319.855 125.747C319.971 125.809 320.084 125.866 320.202 125.917Z" fill="#F39393"/>
<g opacity="0.15">
<path opacity="0.15" d="M313.473 122.366V124.581H313.292V122.239C313.318 122.267 313.349 122.295 313.383 122.315C313.411 122.337 313.439 122.352 313.473 122.366Z" fill="black"/>
</g>
<g opacity="0.15">
<path opacity="0.15" d="M316.442 124.354V126.027H316.262V124.103C316.278 124.162 316.31 124.219 316.352 124.272C316.377 124.301 316.411 124.329 316.442 124.354Z" fill="black"/>
</g>
<g opacity="0.15">
<path opacity="0.15" d="M318.855 125.863V126.815H318.674V125.696H318.685C318.736 125.758 318.793 125.812 318.855 125.863Z" fill="black"/>
</g>
<path d="M321.18 127.055C321.078 128.491 320.524 129.9 319.587 131.095C319.513 131.186 319.44 131.279 319.363 131.369C319.313 131.429 319.262 131.485 319.211 131.542C319.115 131.652 319.016 131.759 318.923 131.869C318.592 132.239 315.422 134.126 315.264 134.573C312.962 141.226 302.439 154.893 297.617 160.354C296.063 162.102 293.291 162.662 290.986 161.698C290.006 161.278 289.077 160.775 288.181 160.235C287.201 159.639 286.252 159.003 285.331 158.34C284.17 157.503 283.051 156.619 281.971 155.701C281.77 155.526 281.564 155.351 281.361 155.178C281.194 155.031 281.024 154.882 280.861 154.735C279.163 153.223 277.547 151.639 275.988 150.045C275.657 149.706 275.326 149.373 275.004 149.034C274.869 148.893 274.728 148.749 274.589 148.607C274.329 148.336 274.075 148.065 273.815 147.797C272.761 146.698 271.727 145.585 270.708 144.466C270.705 144.463 270.705 144.46 270.705 144.46C270.21 143.921 269.724 143.376 269.239 142.827C269.097 142.669 268.956 142.511 268.818 142.353C268.736 142.257 268.648 142.164 268.566 142.068C268.524 142.022 268.484 141.971 268.439 141.923H268.436C268.422 141.906 268.405 141.89 268.388 141.87C268.261 141.726 268.131 141.576 268.007 141.429C267.967 141.39 267.931 141.344 267.894 141.305C267.154 140.457 266.493 139.553 265.713 138.737C264.699 137.672 263.348 137.022 262.046 136.276C261.775 136.124 261.507 135.966 261.241 135.796C261.238 135.793 261.233 135.793 261.23 135.79C261.086 135.7 260.944 135.607 260.803 135.511C260.795 135.508 260.789 135.499 260.781 135.497C260.648 135.401 260.515 135.307 260.379 135.211C260.244 135.11 260.103 135.008 259.964 134.901C259.829 134.796 259.693 134.691 259.557 134.59C258.905 134.081 258.255 133.581 257.673 133.013C257.504 132.847 257.345 132.674 257.19 132.499C257.074 132.372 256.967 132.239 256.868 132.104C256.778 131.991 256.696 131.878 256.616 131.762C256.58 131.714 256.543 131.66 256.512 131.609C256.345 131.358 256.196 131.107 256.054 130.841C255.998 130.736 255.941 130.626 255.893 130.516C255.876 130.474 255.854 130.431 255.837 130.389C255.924 130.477 256.006 130.564 256.094 130.649C256.679 131.217 257.326 131.717 257.978 132.225C258.114 132.327 258.249 132.429 258.385 132.536C258.521 132.641 258.662 132.745 258.8 132.847C258.933 132.943 259.066 133.036 259.201 133.132C259.21 133.135 259.215 133.143 259.224 133.146C259.365 133.242 259.506 133.333 259.651 133.426C259.653 133.429 259.659 133.429 259.662 133.432C259.925 133.601 260.196 133.759 260.467 133.912C261.769 134.66 263.12 135.307 264.134 136.372C264.914 137.186 265.575 138.093 266.315 138.94C266.351 138.98 266.388 139.025 266.428 139.065C266.555 139.211 266.685 139.361 266.809 139.505C266.823 139.522 266.84 139.539 266.857 139.559H266.86C266.902 139.607 266.942 139.658 266.987 139.703C267.069 139.799 267.157 139.892 267.238 139.988C267.38 140.147 267.521 140.305 267.659 140.463C268.145 141.008 268.634 141.556 269.126 142.096C269.126 142.096 269.126 142.099 269.128 142.101C270.148 143.223 271.182 144.333 272.236 145.432C272.496 145.7 272.75 145.972 273.01 146.243C273.146 146.384 273.287 146.528 273.425 146.669C273.75 147.008 274.078 147.342 274.408 147.681C275.971 149.274 277.584 150.859 279.281 152.37C279.448 152.517 279.618 152.667 279.781 152.814C279.982 152.986 280.188 153.158 280.392 153.336C281.474 154.255 282.59 155.139 283.751 155.975C284.675 156.642 285.622 157.277 286.602 157.871C287.495 158.41 288.427 158.913 289.407 159.334C291.709 160.3 294.484 159.741 296.037 157.989C300.857 152.528 311.38 138.861 313.685 132.208C313.688 132.194 313.699 132.18 313.711 132.163C314.089 131.646 317.827 129.864 318.149 129.505C318.242 129.395 318.341 129.287 318.437 129.177C318.488 129.121 318.538 129.064 318.589 129.005C318.666 128.914 318.742 128.821 318.812 128.731C319.479 127.878 319.957 126.914 320.208 125.914C320.313 125.959 320.42 125.999 320.533 126.03C320.782 126.101 320.985 126.228 321.098 126.431C321.202 126.623 321.197 126.841 321.18 127.055Z" fill="#F39393"/>
<path opacity="0.15" d="M321.18 127.055C321.078 128.491 320.524 129.9 319.587 131.095C319.513 131.186 319.44 131.279 319.363 131.369C319.313 131.429 319.262 131.485 319.211 131.542C319.115 131.652 319.016 131.759 318.923 131.869C318.592 132.239 315.422 134.126 315.264 134.573C312.962 141.226 302.439 154.893 297.617 160.354C296.063 162.102 293.291 162.662 290.986 161.698C290.006 161.278 289.077 160.775 288.181 160.235C287.201 159.639 286.252 159.003 285.331 158.34C284.17 157.503 283.051 156.619 281.971 155.701C281.77 155.526 281.564 155.351 281.361 155.178C281.194 155.031 281.024 154.882 280.861 154.735C279.163 153.223 277.547 151.639 275.988 150.045C275.657 149.706 275.326 149.373 275.004 149.034C274.869 148.893 274.728 148.749 274.589 148.607C274.329 148.336 274.075 148.065 273.815 147.797C272.761 146.698 271.727 145.585 270.708 144.466C270.705 144.463 270.705 144.46 270.705 144.46C270.21 143.921 269.724 143.376 269.239 142.827C269.097 142.669 268.956 142.511 268.818 142.353C268.736 142.257 268.648 142.164 268.566 142.068C268.524 142.022 268.484 141.971 268.439 141.923H268.436C268.422 141.906 268.405 141.89 268.388 141.87C268.261 141.726 268.131 141.576 268.007 141.429C267.967 141.39 267.931 141.344 267.894 141.305C267.154 140.457 266.493 139.553 265.713 138.737C264.699 137.672 263.348 137.022 262.046 136.276C261.775 136.124 261.507 135.966 261.241 135.796C261.238 135.793 261.233 135.793 261.23 135.79C261.086 135.7 260.944 135.607 260.803 135.511C260.795 135.508 260.789 135.499 260.781 135.497C260.648 135.401 260.515 135.307 260.379 135.211C260.244 135.11 260.103 135.008 259.964 134.901C259.829 134.796 259.693 134.691 259.557 134.59C258.905 134.081 258.255 133.581 257.673 133.013C257.504 132.847 257.345 132.674 257.19 132.499C257.074 132.372 256.967 132.239 256.868 132.104C256.778 131.991 256.696 131.878 256.616 131.762C256.58 131.714 256.543 131.66 256.512 131.609C256.345 131.358 256.196 131.107 256.054 130.841C255.998 130.736 255.941 130.626 255.893 130.516C255.876 130.474 255.854 130.431 255.837 130.389C255.924 130.477 256.006 130.564 256.094 130.649C256.679 131.217 257.326 131.717 257.978 132.225C258.114 132.327 258.249 132.429 258.385 132.536C258.521 132.641 258.662 132.745 258.8 132.847C258.933 132.943 259.066 133.036 259.201 133.132C259.21 133.135 259.215 133.143 259.224 133.146C259.365 133.242 259.506 133.333 259.651 133.426C259.653 133.429 259.659 133.429 259.662 133.432C259.925 133.601 260.196 133.759 260.467 133.912C261.769 134.66 263.12 135.307 264.134 136.372C264.914 137.186 265.575 138.093 266.315 138.94C266.351 138.98 266.388 139.025 266.428 139.065C266.555 139.211 266.685 139.361 266.809 139.505C266.823 139.522 266.84 139.539 266.857 139.559H266.86C266.902 139.607 266.942 139.658 266.987 139.703C267.069 139.799 267.157 139.892 267.238 139.988C267.38 140.147 267.521 140.305 267.659 140.463C268.145 141.008 268.634 141.556 269.126 142.096C269.126 142.096 269.126 142.099 269.128 142.101C270.148 143.223 271.182 144.333 272.236 145.432C272.496 145.7 272.75 145.972 273.01 146.243C273.146 146.384 273.287 146.528 273.425 146.669C273.75 147.008 274.078 147.342 274.408 147.681C275.971 149.274 277.584 150.859 279.281 152.37C279.448 152.517 279.618 152.667 279.781 152.814C279.982 152.986 280.188 153.158 280.392 153.336C281.474 154.255 282.59 155.139 283.751 155.975C284.675 156.642 285.622 157.277 286.602 157.871C287.495 158.41 288.427 158.913 289.407 159.334C291.709 160.3 294.484 159.741 296.037 157.989C300.857 152.528 311.38 138.861 313.685 132.208C313.688 132.194 313.699 132.18 313.711 132.163C314.089 131.646 317.827 129.864 318.149 129.505C318.242 129.395 318.341 129.287 318.437 129.177C318.488 129.121 318.538 129.064 318.589 129.005C318.666 128.914 318.742 128.821 318.812 128.731C319.479 127.878 319.957 126.914 320.208 125.914C320.313 125.959 320.42 125.999 320.533 126.03C320.782 126.101 320.985 126.228 321.098 126.431C321.202 126.623 321.197 126.841 321.18 127.055Z" fill="black"/>
<path d="M281.538 134.058L276.335 137.748L275.914 138.047L270.538 141.858L270.114 142.16L269.645 142.491L269.233 142.83C268.95 142.511 268.668 142.189 268.385 141.869C268.258 141.723 268.128 141.578 268.001 141.429C267.961 141.389 267.927 141.344 267.888 141.304C267.151 140.46 266.484 139.553 265.707 138.737C264.481 137.451 262.766 136.77 261.235 135.799C261.08 135.7 260.93 135.598 260.777 135.496C260.554 135.341 260.331 135.18 260.114 135.013C259.924 134.875 259.741 134.734 259.554 134.589C258.902 134.084 258.252 133.581 257.67 133.013C256.489 131.855 255.701 130.44 255.317 128.942C255.283 128.815 255.255 128.688 255.226 128.555C254.887 126.965 255 125.292 255.568 123.753C255.608 123.637 255.653 123.521 255.707 123.408C256.065 122.549 256.571 121.733 257.221 121.004C257.616 120.563 258.065 120.145 258.577 119.798C258.577 119.798 258.58 119.798 258.58 119.795C258.732 119.693 258.893 119.592 259.06 119.504C259.08 119.493 259.094 119.487 259.111 119.476C259.888 119.063 260.772 118.823 261.656 118.631C263.439 118.241 265.3 118.01 267.114 118.244C273.51 119.075 277.787 126.213 279.872 130.852C280.179 131.536 280.513 132.211 280.872 132.877C280.939 133.013 281.013 133.146 281.083 133.281C281.242 133.541 281.386 133.798 281.538 134.058Z" fill="#4D61FC"/>
<path d="M272.405 91.7484L275.247 97.6102C275.247 97.6102 275.34 98.7007 274.061 99.1781L272.405 91.7484Z" fill="#F39393"/>
<path d="M271.854 95.9548C272.121 95.9548 272.337 95.6274 272.337 95.2231C272.337 94.8191 272.121 94.4914 271.854 94.4914C271.587 94.4914 271.371 94.8191 271.371 95.2231C271.371 95.6274 271.587 95.9548 271.854 95.9548Z" fill="#21252B"/>
<path d="M272.117 95.116C272.159 95.116 272.194 95.0717 272.194 95.0171C272.194 94.9626 272.159 94.9183 272.117 94.9183C272.075 94.9183 272.041 94.9626 272.041 95.0171C272.041 95.0717 272.075 95.116 272.117 95.116Z" fill="white"/>
<path opacity="0.15" d="M262.023 96.537C261.441 96.085 260.723 95.7997 259.986 95.7234C259.721 95.6951 259.438 95.698 259.201 95.8194C258.927 95.9607 258.754 96.2432 258.65 96.5285C258.461 97.0511 258.452 97.6359 258.627 98.1642" stroke="black" stroke-miterlimit="10"/>
<path opacity="0.15" d="M274.795 103.52C274.795 103.52 273.117 103.334 272.857 102.501" stroke="black" stroke-miterlimit="10"/>
<path d="M288.048 143.068L283.893 145.585L281.658 146.938L280.663 147.537L277.635 149.37L277.143 149.667L275.985 150.367C275.654 150.028 275.324 149.695 275.002 149.356C274.866 149.215 274.725 149.071 274.587 148.929C274.327 148.658 274.072 148.387 273.813 148.119C272.759 147.02 271.725 145.907 270.705 144.788C270.702 144.785 270.702 144.78 270.702 144.78L273.106 143.291L273.598 142.991L275.115 142.053L278.977 139.666L279.782 139.169L280.262 138.872L282.466 137.511L283.26 137.022C283.636 137.553 284.028 138.076 284.432 138.596L288.048 143.068Z" fill="#3F424A"/>
<path d="M274.177 142.666L278.463 148.893L285.944 144.305L281.856 137.802L274.177 142.666Z" fill="black"/>
<path d="M275.807 142.861L278.867 147.308L284.283 143.943L281.291 139.387L275.807 142.861Z" fill="#DADCDD"/>
<path d="M261.793 99.999C262.231 99.6507 262.265 98.9634 261.868 98.4637C261.471 97.9639 260.794 97.8413 260.355 98.1896C259.917 98.5382 259.883 99.2256 260.28 99.7253C260.677 100.225 261.354 100.348 261.793 99.999Z" fill="#DADCDD"/>
<path d="M261.546 99.7261L263.239 101.661" stroke="#DADCDD" stroke-width="1.5" stroke-miterlimit="10" stroke-linecap="round" stroke-linejoin="round"/>
<path d="M261.114 99.1238C261.141 99.1012 261.14 99.0535 261.11 99.0171C261.081 98.9809 261.034 98.9699 261.006 98.9927C260.979 99.0153 260.98 99.0631 261.01 99.0993C261.039 99.1357 261.086 99.1467 261.114 99.1238Z" fill="#21252B"/>
<path d="M261.289 99.3524C261.317 99.3295 261.315 99.2818 261.286 99.2456C261.256 99.2094 261.21 99.1984 261.182 99.221C261.154 99.2439 261.155 99.2917 261.185 99.3278C261.215 99.364 261.261 99.375 261.289 99.3524Z" fill="#21252B"/>
<path d="M261.459 99.5758C261.487 99.553 261.485 99.5052 261.456 99.469C261.426 99.4329 261.379 99.4219 261.352 99.4445C261.324 99.4674 261.325 99.5151 261.355 99.5513C261.385 99.5874 261.431 99.5984 261.459 99.5758Z" fill="#21252B"/>
</g>
<defs>
<clipPath id="clip0_4_18">
<rect width="452" height="339" fill="white"/>
</clipPath>
</defs>
</svg>
